SplineFontDB: 3.2
FontName: ayuta-thin
FullName: Ayuta Thin
FamilyName: ayuta
Weight: Thin
Copyright: Copyright 2024 The Ayuta Project Authors (github.com/mitradranirban)
Version: 1.0
StyleMapFamilyName: 
ItalicAngle: 0
UnderlinePosition: 0
UnderlineWidth: 0
Ascent: 1638
Descent: 410
InvalidEm: 1
UFOAscent: 1638.4
UFODescent: -512
LayerCount: 2
Layer: 0 0 "Back" 1
Layer: 1 0 "Fore" 0
StyleMap: 0x0000
FSType: 0
OS2Version: 0
OS2_WeightWidthSlopeOnly: 0
OS2_UseTypoMetrics: 0
CreationTime: 1728386608
ModificationTime: 1728387620
PfmFamily: 16
TTFWeight: 400
TTFWidth: 5
LineGap: 0
VLineGap: 0
OS2TypoAscent: 0
OS2TypoAOffset: 1
OS2TypoDescent: 0
OS2TypoDOffset: 1
OS2TypoLinegap: 0
OS2WinAscent: 0
OS2WinAOffset: 1
OS2WinDescent: 0
OS2WinDOffset: 1
HheadAscent: 0
HheadAOffset: 1
HheadDescent: 0
HheadDOffset: 1
OS2CapHeight: 1536
OS2XHeight: 1024
MarkAttachClasses: 1
DEI: 91125
LangName: 1033 "Copyright 2024 The Ayuta Project Authors (github.com/mitradranirban)" "" "" "" "" "" "" "" "Dr Anirban Mitra" "Dr Anirban Mitra" "A Variable Hangul font created using rectangular components" "https://fonts.atipra.in" "https://github.com/mitradranirban" "Copyright 2024 The Samaano Project Authors (https://github.com/mitradranirban/samaano-fonts) This Font Software is licensed under the SIL Open Font License, Version 1.1.This license is available with a FAQ at: http://scripts.sil.org/OFL" "http://scripts.sil.org/OFL"
PickledDataWithLists: "(dp0
Vxyz.fontra.lineMetricsHorizontalLayout.zones
p1
(dp2
Vascender
p3
I16
sVbaseline
p4
I-16
sVcapHeight
p5
I16
sVdescender
p6
I-16
sVxHeight
p7
I16
ss."
Encoding: UnicodeFull
UnicodeInterp: none
NameList: AGL For New Fonts
DisplaySize: -96
AntiAlias: 1
FitToEm: 0
WinInfo: 0 13 5
BeginPrivate: 0
EndPrivate
BeginChars: 1114112 310

StartChar: uni0000
Encoding: 0 0 0
Width: 772
VWidth: -15
Flags: HW
LayerCount: 2
Fore
SplineSet
271.5 -65 m 257
 770.5 -65 l 257
 770.5 755 l 257
 271.5 755 l 257
 271.5 -65 l 257
308.5 -25 m 257
 308.5 716 l 257
 505 356.5 l 257
 308.5 -25 l 257
354.5 -25 m 257
 524 318 l 257
 694.5 -25 l 257
 354.5 -25 l 257
368.5 722 m 257
 684 722 l 257
 525 397.5 l 257
 368.5 722 l 257
544 359 m 257
 732 722.5 l 257
 732 -25 l 257
 544 359 l 257
EndSplineSet
EndChar

StartChar: exclam
Encoding: 33 33 2
Width: 768
VWidth: -58
Flags: HW
LayerCount: 2
Fore
SplineSet
495 -52.75 m 257
 528.5 -52.75 l 257
 528.5 -3.75 l 257
 495 -3.75 l 257
 495 -52.75 l 257
494 114.75 m 257
 530 114.75 l 257
 530 623.75 l 257
 494 623.75 l 257
 494 114.75 l 257
EndSplineSet
EndChar

StartChar: quotedbl
Encoding: 34 34 3
Width: 768
VWidth: 325
Flags: HW
LayerCount: 2
Fore
SplineSet
396 988 m 257
 429 988 l 257
 429 1112 l 257
 396 1112 l 257
 396 988 l 257
598 988 m 257
 628 988 l 257
 628 1112 l 257
 598 1112 l 257
 598 988 l 257
EndSplineSet
EndChar

StartChar: numbersign
Encoding: 35 35 4
Width: 768
VWidth: -79
Flags: HW
LayerCount: 2
Fore
SplineSet
370.5 513.75 m 261
 370.5 -28.75 l 261
 400 -28.75 l 261
 400 513.75 l 261
 370.5 513.75 l 261
618 517.75 m 261
 618 -30.75 l 261
 653.5 -30.75 l 261
 653.5 517.75 l 261
 618 517.75 l 261
308.5 419.25 m 261
 308.5 390.25 l 261
 709 390.25 l 261
 709 419.25 l 261
 308.5 419.25 l 261
310.5 168.25 m 261
 310.5 130.25 l 261
 715.5 130.25 l 261
 715.5 168.25 l 261
 310.5 168.25 l 261
EndSplineSet
EndChar

StartChar: dollar
Encoding: 36 36 5
Width: 768
VWidth: -45
Flags: HW
LayerCount: 2
Fore
SplineSet
319 724.75 m 257
 319 683.75 l 257
 618 683.75 l 257
 618 724.75 l 257
 319 724.75 l 257
319 726.25 m 257
 319 469.25 l 257
 361 469.25 l 257
 361 726.25 l 257
 319 726.25 l 257
333 -10.25 m 257
 333 -44.75 l 257
 687 -44.75 l 257
 687 -10.25 l 257
 333 -10.25 l 257
665 -44.75 m 257
 705 -44.75 l 257
 705 132.75 l 257
 665 132.75 l 257
 665 -44.75 l 257
319 469.25 m 257
 664.5 132.75 l 257
 705 132.75 l 257
 361 469.25 l 257
 319 469.25 l 257
466.5 773.25 m 257
 466.5 -152.25 l 257
 501.5 -152.25 l 257
 501.5 773.25 l 257
 466.5 773.25 l 257
EndSplineSet
EndChar

StartChar: percent
Encoding: 37 37 6
Width: 768
VWidth: -93
Flags: HW
LayerCount: 2
Fore
SplineSet
317 129.25 m 257
 331.5 115.75 l 257
 705 294.75 l 257
 695.5 307.75 l 257
 317 129.25 l 257
370 481.25 m 257
 370 308.75 l 257
 385.5 308.75 l 257
 385.5 481.25 l 257
 370 481.25 l 257
370 483.25 m 257
 370 470.25 l 257
 543.5 470.25 l 257
 543.5 483.25 l 257
 370 483.25 l 257
370 320.25 m 257
 370 301.75 l 257
 542 301.75 l 257
 542 320.25 l 257
 370 320.25 l 257
525.5 483.25 m 257
 525.5 302.75 l 257
 543.5 302.75 l 257
 543.5 483.25 l 257
 525.5 483.25 l 257
533.5 125.25 m 257
 533.5 -45.75 l 257
 555 -45.75 l 257
 555 125.25 l 257
 533.5 125.25 l 257
533.5 127.25 m 257
 533.5 105.75 l 257
 707 105.75 l 257
 707 127.25 l 257
 533.5 127.25 l 257
533.5 -38.25 m 257
 533.5 -54.25 l 257
 705.5 -54.25 l 257
 705.5 -38.25 l 257
 533.5 -38.25 l 257
690 127.25 m 257
 690 -53.25 l 257
 707 -53.25 l 257
 707 127.25 l 257
 690 127.25 l 257
EndSplineSet
EndChar

StartChar: ampersand
Encoding: 38 38 7
Width: 768
VWidth: -15
Flags: HW
LayerCount: 2
Fore
SplineSet
386 752.5 m 257
 645 7 l 257
 683 13.5 l 257
 425 752.5 l 257
 386 752.5 l 257
658 719 m 257
 658 753.5 l 257
 425 753.5 l 257
 425 719 l 257
 658 719 l 257
629 728 m 257
 629 488.5 l 257
 658 488.5 l 257
 658 728 l 257
 629 728 l 257
310 508 m 257
 310 478 l 257
 658 478 l 257
 658 508 l 257
 310 508 l 257
310 508 m 257
 310 -2.5 l 257
 355 -2.5 l 257
 355 508 l 257
 310 508 l 257
310 21 m 257
 310 -11.5 l 257
 714 -11.5 l 257
 714 21 l 257
 310 21 l 257
EndSplineSet
EndChar

StartChar: quotesingle
Encoding: 39 39 8
Width: 768
VWidth: 303
Flags: HW
LayerCount: 2
Fore
SplineSet
496 1051.25 m 257
 496 961.75 l 257
 528 961.75 l 257
 528 1051.25 l 257
 496 1051.25 l 257
EndSplineSet
EndChar

StartChar: parenleft
Encoding: 40 40 9
Width: 768
VWidth: -69
Flags: HW
LayerCount: 2
Fore
SplineSet
414 443.25 m 257
 414 21.25 l 257
 478 21.25 l 257
 478 443.25 l 257
 414 443.25 l 257
596 749.75 m 257
 414 443.25 l 257
 478 443.25 l 257
 610 748.25 l 257
 596 749.75 l 257
414 21.25 m 257
 583 -222.75 l 257
 597 -222.75 l 257
 478 21.25 l 257
 414 21.25 l 257
EndSplineSet
EndChar

StartChar: parenright
Encoding: 41 41 10
Width: 768
VWidth: -69
Flags: HW
LayerCount: 2
Fore
SplineSet
531 443 m 257
 531 21 l 257
 595 21 l 257
 595 443 l 257
 531 443 l 257
429 749 m 257
 531 443 l 257
 595 443 l 257
 448 749 l 257
 429 749 l 257
531 21 m 257
 429 -223 l 257
 443 -223 l 257
 595 21 l 257
 531 21 l 257
EndSplineSet
EndChar

StartChar: asterisk
Encoding: 42 42 11
Width: 768
VWidth: -4
Flags: HW
LayerCount: 2
Fore
SplineSet
499 645 m 257
 499 141 l 257
 549 141 l 257
 549 645 l 257
 499 645 l 257
326 573 m 257
 688 208.5 l 257
 722 244.5 l 257
 356 607.5 l 257
 326 573 l 257
676 596.5 m 257
 302 221 l 257
 330 196 l 257
 702 563.5 l 257
 676 596.5 l 257
EndSplineSet
EndChar

StartChar: plus
Encoding: 43 43 12
Width: 768
VWidth: -54
Flags: HW
LayerCount: 2
Fore
SplineSet
473 557 m 257
 473 29 l 257
 528 29 l 257
 528 557 l 257
 473 557 l 257
286.5 344.5 m 257
 286.5 293 l 257
 737.5 293 l 257
 737.5 344.5 l 257
 286.5 344.5 l 257
EndSplineSet
EndChar

StartChar: comma
Encoding: 44 44 13
Width: 768
VWidth: -396
Flags: HW
LayerCount: 2
Fore
SplineSet
478 -313.25 m 257
 478 -391.75 l 257
 546 -391.75 l 257
 546 -313.25 l 257
 478 -313.25 l 257
520 -328.25 m 257
 499 -445.25 l 257
 524 -469.75 l 257
 545 -382.75 l 257
 520 -328.25 l 257
EndSplineSet
EndChar

StartChar: hyphen
Encoding: 45 45 14
Width: 768
VWidth: -28
Flags: HW
LayerCount: 2
Fore
SplineSet
305.5 368.5 m 257
 305.5 319.5 l 257
 718.5 319.5 l 257
 718.5 368.5 l 257
 305.5 368.5 l 257
EndSplineSet
EndChar

StartChar: period
Encoding: 46 46 15
Width: 768
VWidth: -372
Flags: HW
LayerCount: 2
Fore
SplineSet
476 -315.25 m 257
 476 -371.75 l 257
 548 -371.75 l 257
 548 -315.25 l 257
 476 -315.25 l 257
EndSplineSet
EndChar

StartChar: slash
Encoding: 47 47 16
Width: 768
VWidth: -28
Flags: HW
LayerCount: 2
Fore
SplineSet
633 712.5 m 257
 339.5 -22.5 l 257
 391 -22.5 l 257
 684.5 712.5 l 257
 633 712.5 l 257
EndSplineSet
EndChar

StartChar: zero
Encoding: 48 48 17
Width: 767
VWidth: -9
Flags: HW
LayerCount: 2
Fore
SplineSet
468.75 433 m 257
 542.25 433 l 257
 542.25 361.5 l 257
 468.75 361.5 l 257
 468.75 433 l 257
331.75 741 m 257
 690.75 741 l 257
 690.75 27.5 l 257
 331.75 27.5 l 257
 331.75 741 l 257
302.25 771 m 257
 302.25 -5 l 257
 720.75 -5 l 257
 720.75 771 l 257
 302.25 771 l 257
EndSplineSet
EndChar

StartChar: one
Encoding: 49 49 18
Width: 772
VWidth: -13
Flags: HW
LayerCount: 2
Fore
SplineSet
536.25 -12.5 m 257
 566.25 -12.5 l 257
 566.25 762.5 l 257
 536.25 762.5 l 257
 536.25 -12.5 l 257
536.25 762.5 m 257
 476.75 700.5 l 257
 502.25 686.5 l 257
 566.25 762.5 l 257
 536.25 762.5 l 257
EndSplineSet
EndChar

StartChar: two
Encoding: 50 50 19
Width: 765
VWidth: -14
Flags: HW
LayerCount: 2
Fore
SplineSet
307.5 728 m 257
 674.5 728 l 257
 674.5 440 l 257
 311 440 l 257
 311 -14 l 257
 697.5 -14 l 257
 697.5 15.5 l 257
 341 15.5 l 257
 341 410.5 l 257
 704.5 410.5 l 257
 704.5 758 l 257
 307.5 758 l 257
 307.5 728 l 257
EndSplineSet
EndChar

StartChar: three
Encoding: 51 51 20
Width: 767
VWidth: -15
Flags: HW
LayerCount: 2
Fore
SplineSet
306 353.5 m 257
 707 353.5 l 257
 707 11.5 l 257
 285 11.5 l 257
 289.5 -18.5 l 257
 737 -18.5 l 257
 737 760.5 l 257
 300 760.5 l 257
 300 732 l 257
 706 732 l 257
 706 383.5 l 257
 306 383.5 l 257
 306 353.5 l 257
EndSplineSet
EndChar

StartChar: four
Encoding: 52 52 21
Width: 767
VWidth: -11
Flags: HW
LayerCount: 2
Fore
SplineSet
300.5 369.75 m 257
 691 369.75 l 257
 691 -7.25 l 257
 719.5 -7.25 l 257
 719.5 764.25 l 257
 689.5 764.25 l 257
 689.5 399.75 l 257
 330.5 399.75 l 257
 330.5 764.25 l 257
 300.5 764.25 l 257
 300.5 369.75 l 257
EndSplineSet
EndChar

StartChar: five
Encoding: 53 53 22
Width: 773
VWidth: -13
Flags: HW
LayerCount: 2
Fore
SplineSet
720 437 m 257
 720 16.5 l 257
 291 16.5 l 257
 291 -12.5 l 257
 750 -12.5 l 257
 750 467 l 257
 321.5 467 l 257
 321.5 733.5 l 257
 755 733.5 l 257
 755 762.5 l 257
 291.5 762.5 l 257
 291.5 437 l 257
 720 437 l 257
EndSplineSet
EndChar

StartChar: six
Encoding: 54 54 23
Width: 768
VWidth: -13
Flags: HW
LayerCount: 2
Fore
SplineSet
277 762.5 m 257
 277 88 l 257
 277 -12.5 l 257
 746.5 -12.5 l 257
 746.5 397 l 257
 308 397 l 257
 308 731.5 l 257
 749 731.5 l 257
 749 762.5 l 257
 277 762.5 l 257
715.5 367 m 257
 715.5 19 l 257
 311 19 l 257
 311 367 l 257
 715.5 367 l 257
EndSplineSet
EndChar

StartChar: seven
Encoding: 55 55 24
Width: 767
VWidth: -12
Flags: HW
LayerCount: 2
Fore
SplineSet
282.25 735.75 m 257
 707.75 735.75 l 257
 707.75 -11.75 l 257
 738.75 -11.75 l 257
 738.75 764.75 l 257
 282.25 764.75 l 257
 282.25 735.75 l 257
EndSplineSet
EndChar

StartChar: eight
Encoding: 56 56 25
Width: 768
VWidth: -13
Flags: HW
LayerCount: 2
Fore
SplineSet
284.25 762.5 m 257
 284.25 -12.5 l 257
 740.75 -12.5 l 257
 740.75 762.5 l 257
 284.25 762.5 l 257
709.75 437 m 257
 709.75 16 l 257
 315.75 16 l 257
 315.75 437 l 257
 709.75 437 l 257
710.25 467 m 257
 315.25 467 l 257
 315.25 732 l 257
 710.25 732 l 257
 710.25 467 l 257
EndSplineSet
EndChar

StartChar: nine
Encoding: 57 57 26
Width: 770
VWidth: -12
Flags: HWO
LayerCount: 2
Fore
SplineSet
719 367.75 m 257
 719 17.75 l 257
 298 17.75 l 257
 298 -11.75 l 257
 747 -11.75 l 257
 747 764.75 l 257
 287 764.75 l 257
 287 758.75 l 257
 287 367.75 l 257
 719 367.75 l 257
717.5 397.25 m 257
 317 397.25 l 257
 317 735.75 l 257
 717.5 735.75 l 257
 717.5 397.25 l 257
EndSplineSet
EndChar

StartChar: colon
Encoding: 58 58 27
Width: 768
VWidth: -260
Flags: HW
LayerCount: 2
Fore
SplineSet
478 -178 m 257
 478 -256.5 l 257
 546 -256.5 l 257
 546 -178 l 257
 478 -178 l 257
478 16.5 m 257
 478 -62 l 257
 546 -62 l 257
 546 16.5 l 257
 478 16.5 l 257
EndSplineSet
EndChar

StartChar: semicolon
Encoding: 59 59 28
Width: 768
VWidth: -312
Flags: HW
LayerCount: 2
Fore
SplineSet
478 -229.25 m 257
 478 -307.75 l 257
 546 -307.75 l 257
 546 -229.25 l 257
 478 -229.25 l 257
520 -243.75 m 257
 499 -360.75 l 257
 524 -385.25 l 257
 545 -298.25 l 257
 520 -243.75 l 257
478 -59.75 m 257
 478 -138.25 l 257
 546 -138.25 l 257
 546 -59.75 l 257
 478 -59.75 l 257
EndSplineSet
EndChar

StartChar: less
Encoding: 60 60 29
Width: 768
VWidth: -117
Flags: HW
LayerCount: 2
Fore
SplineSet
307.5 209.75 m 257
 307.5 168.25 l 257
 716.5 356.75 l 257
 716.5 390.25 l 257
 307.5 209.75 l 257
307.5 209.75 m 257
 307.5 168.25 l 257
 713.5 -55.25 l 257
 713.5 -16.75 l 257
 307.5 209.75 l 257
EndSplineSet
EndChar

StartChar: equal
Encoding: 61 61 30
Width: 768
VWidth: -82
Flags: HW
LayerCount: 2
Fore
SplineSet
308 330.5 m 257
 308 280.5 l 257
 716 280.5 l 257
 716 330.5 l 257
 308 330.5 l 257
308 188.5 m 257
 308 143.5 l 257
 716 143.5 l 257
 716 188.5 l 257
 308 188.5 l 257
EndSplineSet
EndChar

StartChar: greater
Encoding: 62 62 31
Width: 768
VWidth: -117
Flags: HW
LayerCount: 2
Fore
SplineSet
716.5 199.75 m 257
 308.5 390.25 l 257
 308.5 359.75 l 257
 716.5 168.25 l 257
 716.5 199.75 l 257
716.5 199.75 m 257
 307.5 -23.25 l 257
 307.5 -55.25 l 257
 716.5 168.25 l 257
 716.5 199.75 l 257
EndSplineSet
EndChar

StartChar: question
Encoding: 63 63 32
Width: 768
VWidth: 4
Flags: HW
LayerCount: 2
Fore
SplineSet
440 71.75 m 257
 440 4.75 l 257
 496 4.75 l 257
 496 71.75 l 257
 440 71.75 l 257
352 764.25 m 257
 352 717.75 l 257
 670 717.75 l 257
 670 764.25 l 257
 352 764.25 l 257
629 761.75 m 257
 629 487.75 l 257
 672 487.75 l 257
 672 761.75 l 257
 629 761.75 l 257
440 512.25 m 257
 440 478.75 l 257
 672 478.75 l 257
 672 512.25 l 257
 440 512.25 l 257
440 510.25 m 257
 440 200.75 l 257
 488 200.75 l 257
 488 510.25 l 257
 440 510.25 l 257
EndSplineSet
EndChar

StartChar: at
Encoding: 64 64 33
Width: 768
VWidth: -182
Flags: HW
LayerCount: 2
Fore
SplineSet
297 330.25 m 257
 297 296.75 l 257
 746 296.75 l 257
 746 330.25 l 257
 297 330.25 l 257
626 117.75 m 257
 626 -181.25 l 257
 660 -181.25 l 257
 660 117.75 l 257
 626 117.75 l 257
416 119.25 m 257
 416 94.25 l 257
 628 94.25 l 257
 628 119.25 l 257
 416 119.25 l 257
414 113.25 m 257
 414 -175.25 l 257
 441 -175.25 l 257
 441 113.25 l 257
 414 113.25 l 257
413 -143.25 m 257
 413 -181.25 l 257
 660 -181.25 l 257
 660 -143.25 l 257
 413 -143.25 l 257
270 330.25 m 257
 270 -292.75 l 257
 303 -292.75 l 257
 303 330.25 l 257
 270 330.25 l 257
269 -270.75 m 257
 269 -310.25 l 257
 743 -310.25 l 257
 743 -270.75 l 257
 269 -270.75 l 257
712 335.25 m 257
 712 -181.25 l 257
 755 -181.25 l 257
 755 335.25 l 257
 712 335.25 l 257
633 -143.25 m 257
 633 -181.25 l 257
 728 -181.25 l 257
 728 -143.25 l 257
 633 -143.25 l 257
EndSplineSet
EndChar

StartChar: A
Encoding: 65 65 34
Width: 768
VWidth: 14
Flags: HW
LayerCount: 2
Fore
SplineSet
307 22.5 m 257
 336.5 22.5 l 257
 336.5 791 l 257
 307 791 l 257
 307 22.5 l 257
336.5 760.5 m 257
 695 760.5 l 257
 695 791 l 257
 336.5 791 l 257
 336.5 760.5 l 257
333.5 499.5 m 257
 333.5 470 l 257
 695 470 l 257
 695 499.5 l 257
 333.5 499.5 l 257
687 17 m 257
 717 17 l 257
 717 791 l 257
 687 791 l 257
 687 17 l 257
EndSplineSet
EndChar

StartChar: B
Encoding: 66 66 35
Width: 768
VWidth: 13
Flags: HW
LayerCount: 2
Fore
SplineSet
269.5 13.25 m 257
 298 13.25 l 257
 298 789.75 l 257
 269.5 789.75 l 257
 269.5 13.25 l 257
317.5 760.25 m 257
 737 524.75 l 257
 737 553.75 l 257
 317.5 788.25 l 257
 317.5 760.25 l 257
329 418.75 m 257
 737 524.75 l 257
 737 552.75 l 257
 329 448.25 l 257
 329 418.75 l 257
320 44.25 m 257
 320 13.25 l 257
 754 230.25 l 257
 754 263.25 l 257
 320 44.25 l 257
326.5 386.25 m 257
 754.5 228.25 l 257
 754.5 263.75 l 257
 326.5 417.25 l 257
 326.5 386.25 l 257
296.5 448.25 m 257
 296.5 418.75 l 257
 329 418.75 l 257
 329 448.25 l 257
 296.5 448.25 l 257
296.5 417.25 m 257
 296.5 387.25 l 257
 326.5 387.25 l 257
 326.5 417.25 l 257
 296.5 417.25 l 257
290 44.25 m 257
 290 13.25 l 257
 320 13.25 l 257
 320 44.25 l 257
 290 44.25 l 257
287.5 789.75 m 257
 287.5 760.25 l 257
 317.5 760.25 l 257
 317.5 789.75 l 257
 287.5 789.75 l 257
EndSplineSet
EndChar

StartChar: C
Encoding: 67 67 36
Width: 768
VWidth: 13
Flags: HW
LayerCount: 2
Fore
SplineSet
291.5 789.75 m 257
 291.5 13.25 l 257
 321.5 13.25 l 257
 321.5 789.75 l 257
 291.5 789.75 l 257
306 789.75 m 257
 306 760.75 l 257
 732.5 760.75 l 257
 732.5 789.75 l 257
 306 789.75 l 257
308.5 42.25 m 257
 308.5 13.25 l 257
 731.5 13.25 l 257
 731.5 42.25 l 257
 308.5 42.25 l 257
EndSplineSet
EndChar

StartChar: D
Encoding: 68 68 37
Width: 768
VWidth: 13
Flags: HW
LayerCount: 2
Fore
SplineSet
304 789.75 m 257
 304 13.25 l 257
 334 13.25 l 257
 334 789.75 l 257
 304 789.75 l 257
374 788.25 m 257
 374 759.75 l 257
 719 493.75 l 257
 719 524.75 l 257
 374 788.25 l 257
374 42.25 m 257
 374 13.25 l 257
 720 493.25 l 257
 720 524.75 l 257
 374 42.25 l 257
334 789.75 m 257
 334 759.75 l 257
 374 759.75 l 257
 374 789.75 l 257
 334 789.75 l 257
335 42.25 m 257
 335 13.25 l 257
 374 13.25 l 257
 374 42.25 l 257
 335 42.25 l 257
EndSplineSet
EndChar

StartChar: E
Encoding: 69 69 38
Width: 768
VWidth: 13
Flags: HW
LayerCount: 2
Fore
SplineSet
309 788.25 m 257
 309 13.25 l 257
 338.5 13.25 l 257
 338.5 788.25 l 257
 309 788.25 l 257
327 789.75 m 257
 330.5 758.25 l 257
 707.5 758.25 l 257
 707.5 789.75 l 257
 327 789.75 l 257
330.5 43.25 m 257
 330.5 13.25 l 257
 715 13.25 l 257
 715 43.25 l 257
 330.5 43.25 l 257
330 442.75 m 257
 330 412.25 l 257
 592 412.25 l 257
 592 442.75 l 257
 330 442.75 l 257
EndSplineSet
EndChar

StartChar: F
Encoding: 70 70 39
Width: 768
VWidth: 13
Flags: HW
LayerCount: 2
Fore
SplineSet
309 789.75 m 257
 309 13.25 l 257
 338 13.25 l 257
 338 789.75 l 257
 309 789.75 l 257
338 789.75 m 257
 338 761.75 l 257
 715 761.75 l 257
 715 789.75 l 257
 338 789.75 l 257
334 445.25 m 257
 334 416.25 l 257
 629 416.25 l 257
 629 445.25 l 257
 334 445.25 l 257
EndSplineSet
EndChar

StartChar: G
Encoding: 71 71 40
Width: 768
VWidth: 7
Flags: HW
LayerCount: 2
Fore
SplineSet
313.5 771.75 m 257
 313.5 7.25 l 257
 343 7.25 l 257
 343 771.75 l 257
 313.5 771.75 l 257
340 771.75 m 257
 340 741.75 l 257
 692.5 741.75 l 257
 692.5 771.75 l 257
 340 771.75 l 257
329 37.25 m 257
 329 7.25 l 257
 710.5 7.25 l 257
 710.5 37.25 l 257
 329 37.25 l 257
680 287.75 m 257
 680 16.25 l 257
 710.5 16.25 l 257
 710.5 287.75 l 257
 680 287.75 l 257
EndSplineSet
EndChar

StartChar: H
Encoding: 72 72 41
Width: 768
VWidth: 13
Flags: HW
LayerCount: 2
Fore
SplineSet
313 789.75 m 257
 313 13.25 l 257
 342.5 13.25 l 257
 342.5 789.75 l 257
 313 789.75 l 257
680.5 789.75 m 257
 680.5 13.25 l 257
 711 13.25 l 257
 711 789.75 l 257
 680.5 789.75 l 257
334 474.75 m 257
 334 445.25 l 257
 692.5 445.25 l 257
 692.5 474.75 l 257
 334 474.75 l 257
EndSplineSet
EndChar

StartChar: I
Encoding: 73 73 42
Width: 768
VWidth: 14
Flags: HW
LayerCount: 2
Fore
SplineSet
333 789 m 257
 333 758.5 l 257
 683.5 758.5 l 257
 683.5 789 l 257
 333 789 l 257
495 771.5 m 257
 495 31 l 257
 524.5 31 l 257
 524.5 771.5 l 257
 495 771.5 l 257
323 47 m 257
 323 17 l 257
 701 17 l 257
 701 47 l 257
 323 47 l 257
EndSplineSet
EndChar

StartChar: J
Encoding: 74 74 43
Width: 768
VWidth: 6
Flags: HW
LayerCount: 2
Fore
SplineSet
676 770.25 m 257
 676 6.75 l 257
 706 6.75 l 257
 706 770.25 l 257
 676 770.25 l 257
318 36.75 m 257
 318 6.75 l 257
 689 6.75 l 257
 689 36.75 l 257
 318 36.75 l 257
318 258.25 m 257
 318 20.25 l 257
 348 20.25 l 257
 348 258.25 l 257
 318 258.25 l 257
EndSplineSet
EndChar

StartChar: K
Encoding: 75 75 44
Width: 768
VWidth: 13
Flags: HW
LayerCount: 2
Fore
SplineSet
342 789.75 m 257
 342 15.75 l 257
 372 15.75 l 257
 372 789.75 l 257
 342 789.75 l 257
371 520.75 m 257
 371 485.25 l 257
 665 788.25 l 257
 630 788.25 l 257
 371 520.75 l 257
371 480.25 m 257
 361 435.25 l 257
 657 13.25 l 257
 682 13.25 l 257
 371 480.25 l 257
EndSplineSet
EndChar

StartChar: L
Encoding: 76 76 45
Width: 768
VWidth: 13
Flags: HW
LayerCount: 2
Fore
SplineSet
322 789.75 m 257
 322 13.25 l 257
 352 13.25 l 257
 352 789.75 l 257
 322 789.75 l 257
329.5 43.75 m 257
 329.5 13.25 l 257
 702 13.25 l 257
 702 43.75 l 257
 329.5 43.75 l 257
EndSplineSet
EndChar

StartChar: M
Encoding: 77 77 46
Width: 768
VWidth: 13
Flags: HW
LayerCount: 2
Fore
SplineSet
306 789.75 m 257
 306 13.25 l 257
 336 13.25 l 257
 336 789.75 l 257
 306 789.75 l 257
687 789.75 m 257
 687 13.25 l 257
 718 13.25 l 257
 718 789.75 l 257
 687 789.75 l 257
306 789.75 m 257
 494 529.75 l 257
 528 529.75 l 257
 336 789.75 l 257
 306 789.75 l 257
687 789.75 m 257
 494 529.75 l 257
 528 529.75 l 257
 718 789.75 l 257
 687 789.75 l 257
EndSplineSet
EndChar

StartChar: N
Encoding: 78 78 47
Width: 768
VWidth: 13
Flags: HW
LayerCount: 2
Fore
SplineSet
305 789.75 m 257
 305 13.25 l 257
 335 13.25 l 257
 335 789.75 l 257
 305 789.75 l 257
689 789.75 m 257
 689 13.25 l 257
 719 13.25 l 257
 719 789.75 l 257
 689 789.75 l 257
305 789.75 m 257
 689 13.25 l 257
 719 13.25 l 257
 335 789.75 l 257
 305 789.75 l 257
EndSplineSet
EndChar

StartChar: O
Encoding: 79 79 48
Width: 768
VWidth: 13
Flags: HW
LayerCount: 2
Fore
SplineSet
312 789.75 m 257
 312 13.25 l 257
 341.5 13.25 l 257
 341.5 789.75 l 257
 312 789.75 l 257
682.5 789.75 m 257
 682.5 13.25 l 257
 712 13.25 l 257
 712 789.75 l 257
 682.5 789.75 l 257
331 789.75 m 257
 331 759.75 l 257
 697 759.75 l 257
 697 789.75 l 257
 331 789.75 l 257
332 43.75 m 257
 332 13.25 l 257
 701 13.25 l 257
 701 43.75 l 257
 332 43.75 l 257
EndSplineSet
EndChar

StartChar: P
Encoding: 80 80 49
Width: 768
VWidth: 12
Flags: HW
LayerCount: 2
Fore
SplineSet
322 780 m 257
 322 12.5 l 257
 351.5 12.5 l 257
 351.5 780 l 257
 322 780 l 257
322 787.5 m 257
 322 748.5 l 257
 702 748.5 l 257
 702 787.5 l 257
 322 787.5 l 257
671.5 780.5 m 257
 671.5 448.5 l 257
 702 448.5 l 257
 702 780.5 l 257
 671.5 780.5 l 257
344.5 478 m 257
 344.5 448 l 257
 688 448 l 257
 688 478 l 257
 344.5 478 l 257
EndSplineSet
EndChar

StartChar: Q
Encoding: 81 81 50
Width: 768
VWidth: -38
Flags: HW
LayerCount: 2
Fore
SplineSet
312 738.75 m 257
 312 -37.75 l 257
 341 -37.75 l 257
 341 738.75 l 257
 312 738.75 l 257
683 738.75 m 257
 683 -37.75 l 257
 712 -37.75 l 257
 712 738.75 l 257
 683 738.75 l 257
332 738.75 m 257
 332 710.25 l 257
 687 710.25 l 257
 687 738.75 l 257
 332 738.75 l 257
332 -6.75 m 257
 332 -37.75 l 257
 688 -37.75 l 257
 688 -6.75 l 257
 332 -6.75 l 257
564 -31.25 m 257
 617 -139.75 l 257
 648 -120.25 l 257
 588 -11.75 l 257
 564 -31.25 l 257
EndSplineSet
EndChar

StartChar: R
Encoding: 82 82 51
Width: 768
VWidth: 12
Flags: HW
LayerCount: 2
Fore
SplineSet
317 787.5 m 257
 317 12.5 l 257
 347 12.5 l 257
 347 787.5 l 257
 317 787.5 l 257
338 787.5 m 257
 338 758 l 257
 684 758 l 257
 684 787.5 l 257
 338 787.5 l 257
667 787.5 m 257
 667 448.5 l 257
 698 448.5 l 257
 698 787.5 l 257
 667 787.5 l 257
332 477 m 257
 332 446.5 l 257
 692 446.5 l 257
 692 477 l 257
 332 477 l 257
463 450 m 257
 679 12.5 l 257
 707 12.5 l 257
 492 450 l 257
 463 450 l 257
EndSplineSet
EndChar

StartChar: S
Encoding: 83 83 52
Width: 768
VWidth: 13
Flags: HW
LayerCount: 2
Fore
SplineSet
319 789.75 m 257
 319 760.25 l 257
 618 760.25 l 257
 618 789.75 l 257
 319 789.75 l 257
319 784.25 m 257
 319 527.25 l 257
 348.5 527.25 l 257
 348.5 784.25 l 257
 319 784.25 l 257
333 43.25 m 257
 333 13.25 l 257
 687 13.25 l 257
 687 43.25 l 257
 333 43.25 l 257
675.5 13.25 m 257
 705 13.25 l 257
 705 190.75 l 257
 675.5 190.75 l 257
 675.5 13.25 l 257
319 527.25 m 257
 675.5 190.75 l 257
 705 190.75 l 257
 348.5 527.25 l 257
 319 527.25 l 257
EndSplineSet
EndChar

StartChar: T
Encoding: 84 84 53
Width: 768
VWidth: 16
Flags: HW
LayerCount: 2
Fore
SplineSet
316 792.75 m 257
 316 763.25 l 257
 708 763.25 l 257
 708 792.75 l 257
 316 792.75 l 257
498 772.25 m 257
 498 22.25 l 257
 527 22.25 l 257
 527 772.25 l 257
 498 772.25 l 257
EndSplineSet
EndChar

StartChar: U
Encoding: 85 85 54
Width: 768
VWidth: 13
Flags: HW
LayerCount: 2
Fore
SplineSet
334.5 789.75 m 257
 334.5 13.25 l 257
 365.5 13.25 l 257
 365.5 789.75 l 257
 334.5 789.75 l 257
659.5 789.75 m 257
 659.5 13.25 l 257
 689.5 13.25 l 257
 689.5 789.75 l 257
 659.5 789.75 l 257
358 43.75 m 257
 358 13.25 l 257
 668 13.25 l 257
 668 43.75 l 257
 358 43.75 l 257
EndSplineSet
EndChar

StartChar: V
Encoding: 86 86 55
Width: 768
VWidth: 13
Flags: HW
LayerCount: 2
Fore
SplineSet
309 789.75 m 257
 513 13.25 l 257
 543 13.25 l 257
 341 789.75 l 257
 309 789.75 l 257
680 789.75 m 257
 513 13.25 l 257
 543 13.25 l 257
 715 789.75 l 257
 680 789.75 l 257
EndSplineSet
EndChar

StartChar: W
Encoding: 87 87 56
Width: 768
VWidth: 12
Flags: HW
LayerCount: 2
Fore
SplineSet
307.5 787.5 m 257
 307.5 12.5 l 257
 337.5 12.5 l 257
 337.5 787.5 l 257
 307.5 787.5 l 257
686.5 779 m 257
 686.5 18.5 l 257
 716.5 18.5 l 257
 716.5 779 l 257
 686.5 779 l 257
497 526.5 m 257
 497 12.5 l 257
 527 12.5 l 257
 527 526.5 l 257
 497 526.5 l 257
311.5 42.5 m 257
 311.5 12.5 l 257
 716.5 12.5 l 257
 716.5 42.5 l 257
 311.5 42.5 l 257
EndSplineSet
EndChar

StartChar: X
Encoding: 88 88 57
Width: 768
VWidth: 13
Flags: HW
LayerCount: 2
Fore
SplineSet
283 789.75 m 257
 704 13.25 l 257
 741 13.25 l 257
 319 789.75 l 257
 283 789.75 l 257
291 13.25 m 257
 320 13.25 l 257
 693 789.75 l 257
 655 789.75 l 257
 291 13.25 l 257
EndSplineSet
EndChar

StartChar: Y
Encoding: 89 89 58
Width: 768
VWidth: 12
Flags: HW
LayerCount: 2
Fore
SplineSet
496 460 m 257
 496 12.5 l 257
 525.5 12.5 l 257
 525.5 460 l 257
 496 460 l 257
341.5 787.5 m 257
 341.5 442 l 257
 372 442 l 257
 372 787.5 l 257
 341.5 787.5 l 257
652.5 780.5 m 257
 652.5 442 l 257
 682.5 442 l 257
 682.5 780.5 l 257
 652.5 780.5 l 257
364.5 472 m 257
 364.5 442 l 257
 669 442 l 257
 669 472 l 257
 364.5 472 l 257
EndSplineSet
EndChar

StartChar: Z
Encoding: 90 90 59
Width: 768
VWidth: 12
Flags: HW
LayerCount: 2
Fore
SplineSet
305 787.5 m 257
 305 758 l 257
 719 758 l 257
 719 787.5 l 257
 305 787.5 l 257
305.5 42.5 m 257
 305.5 12.5 l 257
 719 12.5 l 257
 719 42.5 l 257
 305.5 42.5 l 257
689 758 m 257
 305.5 42.5 l 257
 335.5 42.5 l 257
 719 758 l 257
 689 758 l 257
EndSplineSet
EndChar

StartChar: bracketleft
Encoding: 91 91 60
Width: 768
VWidth: -50
Flags: HW
LayerCount: 2
Fore
SplineSet
445 721.25 m 257
 445 -170.75 l 257
 473.5 -170.75 l 257
 473.5 721.25 l 257
 445 721.25 l 257
472 721.75 m 257
 472 690.75 l 257
 576.5 690.75 l 257
 576.5 721.75 l 257
 472 721.75 l 257
463 -133.75 m 257
 463 -170.75 l 257
 579 -170.75 l 257
 579 -133.75 l 257
 463 -133.75 l 257
EndSplineSet
EndChar

StartChar: backslash
Encoding: 92 92 61
Width: 768
VWidth: 12
Flags: HW
LayerCount: 2
Fore
SplineSet
353.5 787.5 m 257
 631.5 12.5 l 257
 670.5 12.5 l 257
 395 787.5 l 257
 353.5 787.5 l 257
EndSplineSet
EndChar

StartChar: bracketright
Encoding: 93 93 62
Width: 768
VWidth: -50
Flags: HW
LayerCount: 2
Fore
SplineSet
549.5 721.25 m 257
 549.5 -170.75 l 257
 580.5 -170.75 l 257
 580.5 721.25 l 257
 549.5 721.25 l 257
443.5 721.75 m 257
 443.5 689.25 l 257
 557.5 689.25 l 257
 557.5 721.75 l 257
 443.5 721.75 l 257
443.5 -132.25 m 257
 443.5 -170.75 l 257
 563 -170.75 l 257
 563 -132.25 l 257
 443.5 -132.25 l 257
EndSplineSet
EndChar

StartChar: asciicircum
Encoding: 94 94 63
Width: 768
VWidth: -27
Flags: HW
LayerCount: 2
Fore
SplineSet
511 485 m 257
 475 485 l 257
 343 177 l 257
 370 160 l 257
 511 485 l 257
478 488.5 m 257
 640 155.5 l 257
 681 173.5 l 257
 515 488.5 l 257
 478 488.5 l 257
EndSplineSet
EndChar

StartChar: underscore
Encoding: 95 95 64
Width: 768
VWidth: -385
Flags: HW
LayerCount: 2
Fore
SplineSet
256 -385 m 257
 256 -405 l 257
 768 -405 l 257
 768 -385 l 257
 256 -385 l 257
EndSplineSet
EndChar

StartChar: grave
Encoding: 96 96 65
Width: 768
VWidth: 224
Flags: HW
LayerCount: 2
Fore
SplineSet
469 867.25 m 257
 511 752.75 l 257
 555 780.25 l 257
 509 894.25 l 257
 469 867.25 l 257
EndSplineSet
EndChar

StartChar: a
Encoding: 97 97 66
Width: 768
VWidth: -119
Flags: HW
LayerCount: 2
Fore
SplineSet
340 393 m 257
 340 359.5 l 257
 664.5 359.5 l 257
 664.5 392.5 l 257
 340 393 l 257
645.5 392.5 m 257
 645.5 -119 l 257
 684 -119 l 257
 684 392.5 l 257
 645.5 392.5 l 257
341.5 181 m 257
 341.5 150 l 257
 653.5 150 l 257
 653.5 181 l 257
 341.5 181 l 257
342 169.5 m 257
 342 -119 l 257
 377.5 -119 l 257
 377.5 169.5 l 257
 342 169.5 l 257
346.5 -82 m 257
 346.5 -119 l 257
 678.5 -119 l 257
 678.5 -82 l 257
 346.5 -82 l 257
EndSplineSet
EndChar

StartChar: b
Encoding: 98 98 67
Width: 768
VWidth: 9
Flags: HW
LayerCount: 2
Fore
SplineSet
323.5 777 m 257
 323.5 9 l 257
 353.5 9 l 257
 353.5 777 l 257
 323.5 777 l 257
345 525.5 m 257
 345 495 l 257
 677 495 l 257
 677 525.5 l 257
 345 525.5 l 257
670.5 525.5 m 257
 670.5 9 l 257
 700.5 9 l 257
 700.5 525.5 l 257
 670.5 525.5 l 257
341 39 m 257
 341 9 l 257
 689.5 9 l 257
 689.5 39 l 257
 341 39 l 257
EndSplineSet
EndChar

StartChar: c
Encoding: 99 99 68
Width: 768
VWidth: -120
Flags: HW
LayerCount: 2
Fore
SplineSet
338 392.25 m 257
 338 364.25 l 257
 686 364.25 l 257
 686 392.25 l 257
 338 392.25 l 257
339 372.75 m 257
 339 -119.25 l 257
 369 -119.25 l 257
 369 372.75 l 257
 339 372.75 l 257
363 -89.25 m 257
 363 -119.25 l 257
 683 -119.25 l 257
 683 -89.25 l 257
 363 -89.25 l 257
EndSplineSet
EndChar

StartChar: d
Encoding: 100 100 69
Width: 768
VWidth: 6
Flags: HW
LayerCount: 2
Fore
SplineSet
672 770.25 m 257
 672 6.75 l 257
 702 6.75 l 257
 702 770.25 l 257
 672 770.25 l 257
344 518.25 m 257
 344 489.75 l 257
 689 489.75 l 257
 689 518.25 l 257
 344 518.25 l 257
322 518.25 m 257
 322 6.75 l 257
 352 6.75 l 257
 352 518.25 l 257
 322 518.25 l 257
342 36.25 m 257
 342 6.75 l 257
 678 6.75 l 257
 678 36.25 l 257
 342 36.25 l 257
EndSplineSet
EndChar

StartChar: e
Encoding: 101 101 70
Width: 768
VWidth: -120
Flags: HW
LayerCount: 2
Fore
SplineSet
365 392.25 m 257
 358 366.75 l 257
 677.5 366.75 l 257
 684.5 392.25 l 257
 365 392.25 l 257
339 392.25 m 257
 339 -119.25 l 257
 368 -119.25 l 257
 368 392.25 l 257
 339 392.25 l 257
360 -88.75 m 257
 360 -119.25 l 257
 682.5 -119.25 l 257
 682.5 -88.75 l 257
 360 -88.75 l 257
349.5 133.75 m 257
 353.5 103.75 l 257
 668 103.75 l 257
 668 133.75 l 257
 349.5 133.75 l 257
655.5 392.25 m 257
 655.5 103.25 l 257
 685 103.25 l 257
 685 392.25 l 257
 655.5 392.25 l 257
EndSplineSet
EndChar

StartChar: f
Encoding: 102 102 71
Width: 768
VWidth: -221
Flags: HW
LayerCount: 2
Fore
SplineSet
465 290.75 m 257
 465 -423.75 l 257
 495 -423.75 l 257
 495 290.75 l 257
 465 290.75 l 257
465 290.75 m 257
 465 260.75 l 257
 664 260.75 l 257
 664 290.75 l 257
 465 290.75 l 257
360 10.25 m 257
 360 -19.75 l 257
 599 -19.75 l 257
 599 10.25 l 257
 360 10.25 l 257
EndSplineSet
EndChar

StartChar: g
Encoding: 103 103 72
Width: 768
VWidth: -223
Flags: HW
LayerCount: 2
Fore
SplineSet
367.5 289 m 257
 367.5 -222.5 l 257
 397.5 -222.5 l 257
 397.5 289 l 257
 367.5 289 l 257
387.5 289 m 257
 387.5 258.5 l 257
 645.5 258.5 l 257
 645.5 289 l 257
 387.5 289 l 257
626.5 289 m 257
 626.5 -428 l 257
 656.5 -428 l 257
 656.5 289 l 257
 626.5 289 l 257
399 -193.5 m 257
 399 -222.5 l 257
 627.5 -222.5 l 257
 627.5 -193.5 l 257
 399 -193.5 l 257
387.5 -399.5 m 257
 387.5 -429 l 257
 632 -429 l 257
 632 -399.5 l 257
 387.5 -399.5 l 257
EndSplineSet
EndChar

StartChar: h
Encoding: 104 104 73
Width: 768
VWidth: 6
Flags: HW
LayerCount: 2
Fore
SplineSet
343 768.75 m 257
 343 9.25 l 257
 372.5 9.25 l 257
 372.5 768.75 l 257
 343 768.75 l 257
363 520.25 m 257
 363 490.25 l 257
 657.5 490.25 l 257
 657.5 520.25 l 257
 363 520.25 l 257
651.5 520.25 m 257
 651.5 6.25 l 257
 681 6.25 l 257
 681 520.25 l 257
 651.5 520.25 l 257
EndSplineSet
EndChar

StartChar: i
Encoding: 105 105 74
Width: 768
VWidth: -52
Flags: HW
LayerCount: 2
Fore
SplineSet
511 459.5 m 257
 511 -26 l 257
 541 -26 l 257
 541 459.5 l 257
 511 459.5 l 257
326.5 -22 m 257
 326.5 -52 l 257
 697.5 -52 l 257
 697.5 -22 l 257
 326.5 -22 l 257
418 594 m 257
 418 535 l 257
 474.5 535 l 257
 474.5 594 l 257
 418 594 l 257
351.5 459.5 m 257
 351.5 429 l 257
 519.5 429 l 257
 519.5 459.5 l 257
 351.5 459.5 l 257
EndSplineSet
EndChar

StartChar: j
Encoding: 106 106 75
Width: 768
VWidth: -178
Flags: HW
LayerCount: 2
Fore
SplineSet
640 334 m 257
 640 -383 l 257
 669 -383 l 257
 669 334 l 257
 640 334 l 257
355 -351.5 m 257
 355 -380.5 l 257
 650 -380.5 l 257
 650 -351.5 l 257
 355 -351.5 l 257
355 -180.5 m 257
 355 -366.5 l 257
 385 -366.5 l 257
 385 -180.5 l 257
 355 -180.5 l 257
639 423 m 257
 639 393.5 l 257
 669 393.5 l 257
 669 423 l 257
 639 423 l 257
EndSplineSet
EndChar

StartChar: k
Encoding: 107 107 76
Width: 768
VWidth: 8
Flags: HW
LayerCount: 2
Fore
SplineSet
294 776.25 m 257
 294 11.25 l 257
 324 11.25 l 257
 324 776.25 l 257
 294 776.25 l 257
318.5 219.25 m 257
 318.5 184.75 l 257
 647 520.25 l 257
 617 520.25 l 257
 318.5 219.25 l 257
442 314.75 m 257
 421 293.25 l 257
 699.5 8.75 l 257
 730 8.75 l 257
 442 314.75 l 257
EndSplineSet
EndChar

StartChar: l
Encoding: 108 108 77
Width: 768
VWidth: 13
Flags: HW
LayerCount: 2
Fore
SplineSet
353.5 49.25 m 257
 353.5 13.25 l 257
 670.5 13.25 l 257
 670.5 49.25 l 257
 353.5 49.25 l 257
497 789.75 m 257
 497 41.75 l 257
 527 41.75 l 257
 527 789.75 l 257
 497 789.75 l 257
384 789.75 m 257
 384 760.25 l 257
 501.5 760.25 l 257
 501.5 789.75 l 257
 384 789.75 l 257
EndSplineSet
EndChar

StartChar: m
Encoding: 109 109 78
Width: 768
VWidth: -120
Flags: HW
LayerCount: 2
Fore
SplineSet
323 377.25 m 257
 323 -119.25 l 257
 353 -119.25 l 257
 353 377.25 l 257
 323 377.25 l 257
515 366.75 m 257
 515 -119.25 l 257
 545 -119.25 l 257
 545 366.75 l 257
 515 366.75 l 257
708 368.75 m 257
 708 -119.25 l 257
 738 -119.25 l 257
 738 368.75 l 257
 708 368.75 l 257
286 392.25 m 257
 286 363.75 l 257
 738 363.75 l 257
 738 392.25 l 257
 286 392.25 l 257
EndSplineSet
EndChar

StartChar: n
Encoding: 110 110 79
Width: 768
VWidth: -120
Flags: HW
LayerCount: 2
Fore
SplineSet
407 375.75 m 257
 407 -119.25 l 257
 437.5 -119.25 l 257
 437.5 375.75 l 257
 407 375.75 l 257
677 368.75 m 257
 677 -119.25 l 257
 707 -119.25 l 257
 707 368.75 l 257
 677 368.75 l 257
317 392.25 m 257
 317 364.25 l 257
 706 364.25 l 257
 706 392.25 l 257
 317 392.25 l 257
EndSplineSet
EndChar

StartChar: o
Encoding: 111 111 80
Width: 768
VWidth: -120
Flags: HW
LayerCount: 2
Fore
SplineSet
307.5 392.25 m 257
 307.5 -119.25 l 257
 337 -119.25 l 257
 337 392.25 l 257
 307.5 392.25 l 257
686 392.25 m 257
 686 -119.25 l 257
 716.5 -119.25 l 257
 716.5 392.25 l 257
 686 392.25 l 257
338 392.25 m 257
 338 364.25 l 257
 688.5 364.25 l 257
 688.5 392.25 l 257
 338 392.25 l 257
330.5 -88.25 m 257
 330.5 -119.25 l 257
 690 -119.25 l 257
 690 -88.25 l 257
 330.5 -88.25 l 257
EndSplineSet
EndChar

StartChar: p
Encoding: 112 112 81
Width: 768
VWidth: -182
Flags: HW
LayerCount: 2
Fore
SplineSet
351.5 409.25 m 257
 351.5 -384.25 l 257
 381.5 -384.25 l 257
 381.5 409.25 l 257
 351.5 409.25 l 257
373.5 330.25 m 257
 373.5 300.75 l 257
 666.5 300.75 l 257
 666.5 330.25 l 257
 373.5 330.25 l 257
374.5 -150.75 m 257
 374.5 -181.25 l 257
 672.5 -181.25 l 257
 672.5 -150.75 l 257
 374.5 -150.75 l 257
642.5 330.25 m 257
 642.5 -181.25 l 257
 671.5 -181.25 l 257
 671.5 330.25 l 257
 642.5 330.25 l 257
EndSplineSet
EndChar

StartChar: q
Encoding: 113 113 82
Width: 768
VWidth: -180
Flags: HW
LayerCount: 2
Fore
SplineSet
631 414.5 m 257
 631 -382.5 l 257
 661 -382.5 l 257
 661 414.5 l 257
 631 414.5 l 257
329 332 m 257
 329 301 l 257
 653 301 l 257
 653 332 l 257
 329 332 l 257
332 -151 m 257
 332 -179.5 l 257
 640 -179.5 l 257
 640 -151 l 257
 332 -151 l 257
325 332 m 257
 325 -179.5 l 257
 354 -179.5 l 257
 354 332 l 257
 325 332 l 257
633 -351.5 m 257
 633 -382.5 l 257
 699 -382.5 l 257
 699 -351.5 l 257
 633 -351.5 l 257
EndSplineSet
EndChar

StartChar: r
Encoding: 114 114 83
Width: 768
VWidth: -120
Flags: HW
LayerCount: 2
Fore
SplineSet
329 392.25 m 257
 329 361.25 l 257
 695 361.25 l 257
 695 392.25 l 257
 329 392.25 l 257
436 375.25 m 257
 436 -119.25 l 257
 466 -119.25 l 257
 466 375.25 l 257
 436 375.25 l 257
665 368.75 m 257
 665 205.75 l 257
 695 205.75 l 257
 695 368.75 l 257
 665 368.75 l 257
EndSplineSet
EndChar

StartChar: s
Encoding: 115 115 84
Width: 768
VWidth: -120
Flags: HW
LayerCount: 2
Fore
SplineSet
360 392.25 m 257
 360 362.75 l 257
 664 362.75 l 257
 664 392.25 l 257
 360 392.25 l 257
360 392.25 m 257
 360 248.75 l 257
 390 248.75 l 257
 390 392.25 l 257
 360 392.25 l 257
360 -89.75 m 257
 360 -119.25 l 257
 663 -119.25 l 257
 663 -89.75 l 257
 360 -89.75 l 257
632 30.25 m 257
 632 -113.25 l 257
 663 -113.25 l 257
 663 30.25 l 257
 632 30.25 l 257
360 248.75 m 257
 632 30.25 l 257
 663 30.25 l 257
 390 248.75 l 257
 360 248.75 l 257
EndSplineSet
EndChar

StartChar: t
Encoding: 116 116 85
Width: 768
VWidth: 7
Flags: HW
LayerCount: 2
Fore
SplineSet
488 771.75 m 257
 488 7.25 l 257
 518 7.25 l 257
 518 771.75 l 257
 488 771.75 l 257
494 37.25 m 257
 494 7.25 l 257
 690 7.25 l 257
 690 37.25 l 257
 494 37.25 l 257
334 518.75 m 257
 334 489.75 l 257
 671 489.75 l 257
 671 518.75 l 257
 334 518.75 l 257
EndSplineSet
EndChar

StartChar: u
Encoding: 117 117 86
Width: 768
VWidth: -117
Flags: HW
LayerCount: 2
Fore
SplineSet
325 400.5 m 257
 325 -116.5 l 257
 355 -116.5 l 257
 355 400.5 l 257
 325 400.5 l 257
612 400 m 257
 612 -116.5 l 257
 641 -116.5 l 257
 641 400 l 257
 612 400 l 257
348 -86 m 257
 348 -116.5 l 257
 699 -116.5 l 257
 699 -86 l 257
 348 -86 l 257
EndSplineSet
EndChar

StartChar: v
Encoding: 118 118 87
Width: 768
VWidth: -120
Flags: HW
LayerCount: 2
Fore
SplineSet
304 392.25 m 257
 498 -119.25 l 257
 527 -119.25 l 257
 334 392.25 l 257
 304 392.25 l 257
690 392.25 m 257
 498 -119.25 l 257
 527 -119.25 l 257
 720 392.25 l 257
 690 392.25 l 257
EndSplineSet
EndChar

StartChar: w
Encoding: 119 119 88
Width: 768
VWidth: -118
Flags: HW
LayerCount: 2
Fore
SplineSet
308 393.5 m 257
 308 -118 l 257
 338 -118 l 257
 338 393.5 l 257
 308 393.5 l 257
687 396 m 257
 687 -112 l 257
 717 -112 l 257
 717 396 l 257
 687 396 l 257
497 187 m 257
 497 -118 l 257
 527 -118 l 257
 527 187 l 257
 497 187 l 257
307 -88.5 m 257
 307 -118 l 257
 717 -118 l 257
 717 -88.5 l 257
 307 -88.5 l 257
EndSplineSet
EndChar

StartChar: x
Encoding: 120 120 89
Width: 767
VWidth: -120
Flags: HW
LayerCount: 2
Fore
SplineSet
255.5 -119.25 m 257
 287.5 -119.25 l 257
 761.5 392.25 l 257
 731.5 392.25 l 257
 255.5 -119.25 l 257
260.5 392.25 m 257
 734.5 -119.25 l 257
 766.5 -119.25 l 257
 290.5 392.25 l 257
 260.5 392.25 l 257
EndSplineSet
EndChar

StartChar: y
Encoding: 121 121 90
Width: 768
VWidth: -221
Flags: HW
LayerCount: 2
Fore
SplineSet
664.5 290.75 m 257
 664.5 -423.75 l 257
 694.5 -423.75 l 257
 694.5 290.75 l 257
 664.5 290.75 l 257
329.5 -396.25 m 257
 329.5 -423.75 l 257
 688 -423.75 l 257
 688 -396.25 l 257
 329.5 -396.25 l 257
329.5 290.75 m 257
 329.5 -88.75 l 257
 359.5 -88.75 l 257
 359.5 290.75 l 257
 329.5 290.75 l 257
329.5 -58.75 m 257
 329.5 -88.75 l 257
 674.5 -88.75 l 257
 674.5 -58.75 l 257
 329.5 -58.75 l 257
EndSplineSet
EndChar

StartChar: z
Encoding: 122 122 91
Width: 768
VWidth: -120
Flags: HW
LayerCount: 2
Fore
SplineSet
305 392.25 m 257
 305 362.75 l 257
 719 362.75 l 257
 719 392.25 l 257
 305 392.25 l 257
305 -89.75 m 257
 305 -119.25 l 257
 719 -119.25 l 257
 719 -89.75 l 257
 305 -89.75 l 257
680.5 362.75 m 257
 305 -89.75 l 257
 344 -89.75 l 257
 719 362.75 l 257
 680.5 362.75 l 257
EndSplineSet
EndChar

StartChar: braceleft
Encoding: 123 123 92
Width: 768
VWidth: -46
Flags: HW
LayerCount: 2
Fore
SplineSet
512 726 m 257
 512 373 l 257
 554 373 l 257
 554 726 l 257
 512 726 l 257
518 166 m 257
 518 -189 l 257
 563 -189 l 257
 563 166 l 257
 518 166 l 257
367.5 299 m 257
 367.5 269 l 257
 554 373 l 257
 512 373 l 257
 367.5 299 l 257
367.5 299 m 257
 367.5 269 l 257
 517 166.5 l 257
 563.5 166.5 l 257
 367.5 299 l 257
512.5 755.5 m 257
 512.5 680 l 257
 646.5 741 l 257
 648.5 755.5 l 257
 512.5 755.5 l 257
518.5 -116 m 257
 518.5 -189.5 l 257
 656.5 -189.5 l 257
 656.5 -183 l 257
 518.5 -116 l 257
EndSplineSet
EndChar

StartChar: bar
Encoding: 124 124 93
Width: 768
VWidth: -39
Flags: HW
LayerCount: 2
Fore
SplineSet
492 678.75 m 257
 492 -83.75 l 257
 532 -83.75 l 257
 532 678.75 l 257
 492 678.75 l 257
EndSplineSet
EndChar

StartChar: braceright
Encoding: 125 125 94
Width: 768
VWidth: -46
Flags: HW
LayerCount: 2
Fore
SplineSet
520 726.25 m 257
 470 726.25 l 257
 470 373.25 l 257
 520 373.25 l 257
 520 726.25 l 257
513 166.25 m 257
 466.5 166.25 l 257
 466.5 -188.75 l 257
 513 -188.75 l 257
 513 166.25 l 257
656.5 299.25 m 257
 517.5 373.25 l 257
 468 373.25 l 257
 656.5 269.25 l 257
 656.5 299.25 l 257
656.5 299.25 m 257
 466.5 166.25 l 257
 513 166.25 l 257
 656.5 269.25 l 257
 656.5 299.25 l 257
520.5 755.75 m 257
 383 755.75 l 257
 385 741.25 l 257
 520.5 680.25 l 257
 520.5 755.75 l 257
505.5 -115.75 m 257
 367.5 -182.75 l 257
 367.5 -187.75 l 257
 505.5 -187.75 l 257
 505.5 -115.75 l 257
EndSplineSet
EndChar

StartChar: asciitilde
Encoding: 126 126 95
Width: 768
VWidth: -3
Flags: HW
LayerCount: 2
Fore
SplineSet
439 380 m 257
 439 355 l 257
 614 319.5 l 257
 614 344.5 l 257
 439 380 l 257
319 352 m 257
 326 323 l 257
 439 355 l 257
 439 380 l 257
 319 352 l 257
614 344.5 m 257
 614 319.5 l 257
 705 395 l 257
 698 418.5 l 257
 614 344.5 l 257
EndSplineSet
EndChar

StartChar: exclamdown
Encoding: 161 161 97
Width: 768
VWidth: 9
Flags: HW
LayerCount: 2
Fore
SplineSet
527 769.25 m 257
 497 769.25 l 257
 497 645.25 l 257
 527 645.25 l 257
 527 769.25 l 257
525 526.75 m 257
 498 526.75 l 257
 498 17.75 l 257
 527 17.75 l 257
 525 526.75 l 257
EndSplineSet
EndChar

StartChar: cent
Encoding: 162 162 98
Width: 768
VWidth: -101
Flags: HW
LayerCount: 2
Fore
SplineSet
558 490.75 m 257
 528 490.75 l 257
 528 -143.75 l 257
 558 -143.75 l 257
 558 490.75 l 257
338 410.75 m 257
 338 382.25 l 257
 686 382.25 l 257
 686 410.75 l 257
 338 410.75 l 257
339 391.25 m 257
 339 -100.75 l 257
 371.5 -100.75 l 257
 371.5 391.25 l 257
 339 391.25 l 257
363.5 -70.25 m 257
 363.5 -100.75 l 257
 683 -100.75 l 257
 683 -70.25 l 257
 363.5 -70.25 l 257
EndSplineSet
EndChar

StartChar: sterling
Encoding: 163 163 99
Width: 768
VWidth: 10
Flags: HW
LayerCount: 2
Fore
SplineSet
473.5 782.25 m 257
 473.5 751.75 l 257
 568 751.75 l 257
 568 782.25 l 257
 473.5 782.25 l 257
304.5 395.75 m 257
 304.5 363.25 l 257
 667.5 363.25 l 257
 667.5 395.75 l 257
 304.5 395.75 l 257
461.5 781.75 m 257
 461.5 10.75 l 257
 499.5 10.75 l 257
 499.5 781.75 l 257
 461.5 781.75 l 257
356.5 46.75 m 257
 356.5 10.75 l 257
 719.5 10.75 l 257
 719.5 46.75 l 257
 356.5 46.75 l 257
EndSplineSet
EndChar

StartChar: currency
Encoding: 164 164 100
Width: 768
VWidth: -36
Flags: HW
LayerCount: 2
Fore
SplineSet
305 555.25 m 257
 305 44.25 l 257
 335 44.25 l 257
 335 555.25 l 257
 305 555.25 l 257
684 556.25 m 257
 684 44.25 l 257
 714 44.25 l 257
 714 556.25 l 257
 684 556.25 l 257
336 557.75 m 257
 336 527.75 l 257
 686 527.75 l 257
 686 557.75 l 257
 336 557.75 l 257
328 75.25 m 257
 328 44.25 l 257
 688 44.25 l 257
 688 75.25 l 257
 328 75.25 l 257
268 589.75 m 257
 268 532.75 l 257
 340 532.75 l 257
 340 589.75 l 257
 268 589.75 l 257
686 584.75 m 257
 686 527.75 l 257
 757 527.75 l 257
 757 584.75 l 257
 686 584.75 l 257
265 75.75 m 257
 265 18.75 l 257
 337 18.75 l 257
 337 75.75 l 257
 265 75.75 l 257
687 74.25 m 257
 687 17.25 l 257
 759 17.25 l 257
 759 74.25 l 257
 687 74.25 l 257
EndSplineSet
EndChar

StartChar: yen
Encoding: 165 165 101
Width: 768
VWidth: 12
Flags: HW
LayerCount: 2
Fore
SplineSet
370 349 m 257
 370 320 l 257
 643 320 l 257
 643 349 l 257
 370 349 l 257
370 231.5 m 257
 370 202.5 l 257
 643 202.5 l 257
 643 231.5 l 257
 370 231.5 l 257
497.5 461 m 257
 497.5 12.5 l 257
 528 12.5 l 257
 528 461 l 257
 497.5 461 l 257
336 787.5 m 257
 336 442 l 257
 365.5 442 l 257
 365.5 787.5 l 257
 336 787.5 l 257
657.5 787.5 m 257
 657.5 442 l 257
 688 442 l 257
 688 787.5 l 257
 657.5 787.5 l 257
356 472 m 257
 356 441.5 l 257
 676 441.5 l 257
 676 472 l 257
 356 472 l 257
EndSplineSet
EndChar

StartChar: brokenbar
Encoding: 166 166 102
Width: 768
VWidth: -49
Flags: HW
LayerCount: 2
Fore
SplineSet
501 -215 m 257
 523 -215 l 257
 523 292 l 257
 501 292 l 257
 501 -215 l 257
504.5 346 m 257
 523 346 l 257
 523 769 l 257
 504.5 769 l 257
 504.5 346 l 257
EndSplineSet
EndChar

StartChar: section
Encoding: 167 167 103
Width: 768
VWidth: -33
Flags: HW
LayerCount: 2
Fore
SplineSet
319 585.75 m 257
 319 556.25 l 257
 618 556.25 l 257
 618 585.75 l 257
 319 585.75 l 257
319 585.75 m 257
 319 269.75 l 257
 350.5 269.75 l 257
 350.5 585.75 l 257
 319 585.75 l 257
337.5 -132.75 m 257
 337.5 -162.75 l 257
 691.5 -162.75 l 257
 691.5 -132.75 l 257
 337.5 -132.75 l 257
675 -162.25 m 257
 705 -162.25 l 257
 705 14.75 l 257
 675 14.75 l 257
 675 -162.25 l 257
319 270.25 m 257
 674.5 11.25 l 257
 705 11.25 l 257
 348 270.25 l 257
 319 270.25 l 257
319 780.25 m 257
 319 750.25 l 257
 618 750.25 l 257
 618 780.25 l 257
 319 780.25 l 257
319 781.75 m 257
 319 585.75 l 257
 350.5 585.75 l 257
 350.5 781.75 l 257
 319 781.75 l 257
333 11.25 m 257
 333 -13.25 l 257
 687 -13.25 l 257
 687 11.25 l 257
 333 11.25 l 257
674.5 11.25 m 257
 705 11.25 l 257
 705 188.25 l 257
 674.5 188.25 l 257
 674.5 11.25 l 257
319 585.75 m 257
 675 188.25 l 257
 705 188.25 l 257
 350.5 585.75 l 257
 319 585.75 l 257
EndSplineSet
EndChar

StartChar: dieresis
Encoding: 168 168 104
Width: 773
VWidth: 111
Flags: HW
LayerCount: 2
Fore
SplineSet
434.5 623 m 257
 434.5 573 l 257
 490.5 573 l 257
 490.5 623 l 257
 434.5 623 l 257
555.5 623 m 257
 555.5 573 l 257
 611.5 573 l 257
 611.5 623 l 257
 555.5 623 l 257
EndSplineSet
EndChar

StartChar: copyright
Encoding: 169 169 105
Width: 768
VWidth: 10
Flags: HW
LayerCount: 2
Fore
SplineSet
262 780 m 257
 262 10 l 257
 292 10 l 257
 292 780 l 257
 262 780 l 257
732 778.5 m 257
 732 10 l 257
 762 10 l 257
 762 778.5 l 257
 732 778.5 l 257
288 779 m 257
 288 748 l 257
 760 748 l 257
 760 779 l 257
 288 779 l 257
268 40 m 257
 268 10 l 257
 753 10 l 257
 753 40 l 257
 268 40 l 257
385 608.5 m 257
 385 577.5 l 257
 602 577.5 l 257
 602 608.5 l 257
 385 608.5 l 257
385 587 m 257
 385 180 l 257
 415 180 l 257
 415 587 l 257
 385 587 l 257
385 188 m 257
 385 157 l 257
 605 157 l 257
 605 188 l 257
 385 188 l 257
EndSplineSet
EndChar

StartChar: ordfeminine
Encoding: 170 170 106
Width: 768
VWidth: -45
Flags: HW
LayerCount: 2
Fore
SplineSet
346.5 614.5 m 257
 346.5 581 l 257
 671 581 l 257
 671 614.5 l 257
 346.5 614.5 l 257
652 615 m 257
 652 103 l 257
 690.5 103 l 257
 690.5 615 l 257
 652 615 l 257
348 402.5 m 257
 348 371.5 l 257
 660 371.5 l 257
 660 402.5 l 257
 348 402.5 l 257
348.5 391 m 257
 348.5 102 l 257
 384 102 l 257
 384 391 l 257
 348.5 391 l 257
353 139.5 m 257
 353 102 l 257
 685 102 l 257
 685 139.5 l 257
 353 139.5 l 257
295 -11.5 m 257
 295 -45 l 257
 729 -45 l 257
 729 -11.5 l 257
 295 -11.5 l 257
EndSplineSet
EndChar

StartChar: guillemotleft
Encoding: 171 171 107
Width: 768
VWidth: -139
Flags: HW
LayerCount: 2
Fore
SplineSet
305 115.75 m 257
 305 97.25 l 257
 523.5 239.75 l 257
 523.5 253.25 l 257
 305 115.75 l 257
305 115.75 m 257
 305 97.25 l 257
 489 -77.75 l 257
 493 -58.75 l 257
 305 115.75 l 257
514 124.75 m 257
 514 110.25 l 257
 719 252.75 l 257
 719 272.75 l 257
 514 124.75 l 257
513.5 124.75 m 257
 513.5 109.75 l 257
 696.5 -77.75 l 257
 705 -64.25 l 257
 513.5 124.75 l 257
EndSplineSet
EndChar

StartChar: logicalnot
Encoding: 172 172 108
Width: 768
VWidth: 18
Flags: HW
LayerCount: 2
Fore
SplineSet
620.5 486.25 m 257
 620.5 338.75 l 257
 647 338.75 l 257
 647 486.25 l 257
 620.5 486.25 l 257
377 486.25 m 257
 377 456.25 l 257
 644 456.25 l 257
 644 486.25 l 257
 377 486.25 l 257
EndSplineSet
EndChar

StartChar: registered
Encoding: 174 174 109
Width: 768
VWidth: 10
Flags: HW
LayerCount: 2
Fore
SplineSet
454.5 526 m 257
 454.5 260.5 l 257
 473 260.5 l 257
 473 526 l 257
 454.5 526 l 257
467 526 m 257
 467 507 l 257
 581.5 507 l 257
 581.5 526 l 257
 467 526 l 257
567 526 m 257
 567 411 l 257
 586 411 l 257
 586 526 l 257
 567 526 l 257
465 434 m 257
 465 410.5 l 257
 584 410.5 l 257
 584 434 l 257
 465 434 l 257
488.5 414.5 m 257
 588 260 l 257
 609.5 260 l 257
 506 414.5 l 257
 488.5 414.5 l 257
276.5 780 m 257
 276.5 10 l 257
 307.5 10 l 257
 307.5 780 l 257
 276.5 780 l 257
716.5 778.5 m 257
 716.5 10 l 257
 747.5 10 l 257
 747.5 778.5 l 257
 716.5 778.5 l 257
296 779 m 257
 296 749 l 257
 732 749 l 257
 732 779 l 257
 296 779 l 257
294 40.5 m 257
 294 10 l 257
 740 10 l 257
 740 40.5 l 257
 294 40.5 l 257
EndSplineSet
EndChar

StartChar: macron
Encoding: 175 175 110
Width: 770
VWidth: 121
Flags: HW
LayerCount: 2
Fore
SplineSet
376 628.75 m 257
 376 606.25 l 257
 656 606.25 l 257
 656 628.75 l 257
 376 628.75 l 257
EndSplineSet
EndChar

StartChar: degree
Encoding: 176 176 111
Width: 768
VWidth: 291
Flags: HW
LayerCount: 2
Fore
SplineSet
451.5 1011.25 m 257
 576.5 1011.25 l 257
 576.5 907.25 l 257
 451.5 907.25 l 257
 451.5 1011.25 l 257
422 1035.75 m 257
 422 881.25 l 257
 602 881.25 l 257
 602 1035.75 l 257
 422 1035.75 l 257
EndSplineSet
EndChar

StartChar: plusminus
Encoding: 177 177 112
Width: 768
VWidth: -58
Flags: HW
LayerCount: 2
Fore
SplineSet
305.5 -2.75 m 257
 305.5 -33.75 l 257
 718.5 -33.75 l 257
 718.5 -2.75 l 257
 305.5 -2.75 l 257
489 552.75 m 257
 489 56.25 l 257
 519.5 56.25 l 257
 519.5 552.75 l 257
 489 552.75 l 257
286.5 314.25 m 257
 286.5 285.25 l 257
 737.5 285.25 l 257
 737.5 314.25 l 257
 286.5 314.25 l 257
EndSplineSet
EndChar

StartChar: uni00B2
Encoding: 178 178 113
Width: 793
VWidth: 253
Flags: HW
LayerCount: 2
Fore
SplineSet
466.5 1014.25 m 257
 643 1014.25 l 257
 643 906.75 l 257
 468 906.75 l 257
 468 737.75 l 257
 654 737.75 l 257
 654 748.75 l 257
 482.5 748.75 l 257
 482.5 895.75 l 257
 657.5 895.75 l 257
 657.5 1025.25 l 257
 466.5 1025.25 l 257
 466.5 1014.25 l 257
EndSplineSet
EndChar

StartChar: uni00B3
Encoding: 179 179 114
Width: 752
VWidth: 254
Flags: HW
LayerCount: 2
Fore
SplineSet
364.5 877.25 m 257
 593 877.25 l 257
 593 748.75 l 257
 352 748.75 l 257
 355 737.75 l 257
 610 737.75 l 257
 610 1029.25 l 257
 360.5 1029.25 l 257
 360.5 1018.75 l 257
 592 1018.75 l 257
 592 888.25 l 257
 364.5 888.25 l 257
 364.5 877.25 l 257
EndSplineSet
EndChar

StartChar: acute
Encoding: 180 180 115
Width: 762
VWidth: 327
Flags: HW
LayerCount: 2
Fore
SplineSet
511.75 1103.75 m 257
 446.75 978.25 l 257
 490.75 955.25 l 257
 556.25 1082.75 l 257
 511.75 1103.75 l 257
EndSplineSet
EndChar

StartChar: mu
Encoding: 181 181 116
Width: 768
VWidth: -249
Flags: HW
LayerCount: 2
Fore
SplineSet
643 218.75 m 257
 643 -248.75 l 257
 673 -248.75 l 257
 673 218.75 l 257
 643 218.75 l 257
374 -218.75 m 257
 374 -248.75 l 257
 658 -248.75 l 257
 658 -218.75 l 257
 374 -218.75 l 257
351 218.75 m 257
 351 -463.75 l 257
 382 -463.75 l 257
 382 218.75 l 257
 351 218.75 l 257
EndSplineSet
EndChar

StartChar: paragraph
Encoding: 182 182 117
Width: 768
VWidth: 12
Flags: HW
LayerCount: 2
Fore
SplineSet
301 534.5 m 257
 301 505 l 257
 583 505 l 257
 583 534.5 l 257
 301 534.5 l 257
301 787.5 m 257
 301 512.5 l 257
 332 512.5 l 257
 332 787.5 l 257
 301 787.5 l 257
301 787.5 m 257
 301 759 l 257
 711 759 l 257
 711 787.5 l 257
 301 787.5 l 257
576 787.5 m 257
 576 12.5 l 257
 608 12.5 l 257
 608 787.5 l 257
 576 787.5 l 257
692 787.5 m 257
 692 12.5 l 257
 723 12.5 l 257
 723 787.5 l 257
 692 787.5 l 257
EndSplineSet
EndChar

StartChar: periodcentered
Encoding: 183 183 118
Width: 768
VWidth: 127
Flags: HW
LayerCount: 2
Fore
SplineSet
488 655.75 m 257
 488 605.25 l 257
 536 605.25 l 257
 536 655.75 l 257
 488 655.75 l 257
EndSplineSet
EndChar

StartChar: cedilla
Encoding: 184 184 119
Width: 796
VWidth: -404
Flags: HW
LayerCount: 2
Fore
SplineSet
456 -286 m 257
 456 -404 l 257
 485 -404 l 257
 485 -286 l 257
 456 -286 l 257
459 -549.5 m 257
 459 -580 l 257
 682 -580 l 257
 682 -549.5 l 257
 459 -549.5 l 257
652.5 -376 m 257
 652.5 -562 l 257
 682 -562 l 257
 682 -376 l 257
 652.5 -376 l 257
459 -376 m 257
 459 -404 l 257
 682 -404 l 257
 682 -376 l 257
 459 -376 l 257
EndSplineSet
EndChar

StartChar: uni00B9
Encoding: 185 185 120
Width: 772
VWidth: 706
Flags: HW
LayerCount: 2
Fore
SplineSet
528.875 706.25 m 257
 543.875 706.25 l 257
 543.875 1093.75 l 257
 528.875 1093.75 l 257
 528.875 706.25 l 257
528.875 1093.75 m 257
 499.125 1062.75 l 257
 511.875 1055.75 l 257
 543.875 1093.75 l 257
 528.875 1093.75 l 257
EndSplineSet
EndChar

StartChar: ordmasculine
Encoding: 186 186 121
Width: 768
VWidth: -154
Flags: HW
LayerCount: 2
Fore
SplineSet
310 358.25 m 257
 310 -153.25 l 257
 339.5 -153.25 l 257
 339.5 358.25 l 257
 310 358.25 l 257
688.5 358.25 m 257
 688.5 -153.25 l 257
 719 -153.25 l 257
 719 358.25 l 257
 688.5 358.25 l 257
340.5 358.25 m 257
 340.5 330.25 l 257
 691 330.25 l 257
 691 358.25 l 257
 340.5 358.25 l 257
333 -122.25 m 257
 333 -153.25 l 257
 692.5 -153.25 l 257
 692.5 -122.25 l 257
 333 -122.25 l 257
256 -188.25 m 257
 256 -221.25 l 257
 768 -221.25 l 257
 768 -188.25 l 257
 256 -188.25 l 257
EndSplineSet
EndChar

StartChar: guillemotright
Encoding: 187 187 122
Width: 768
VWidth: -139
Flags: HW
LayerCount: 2
Fore
SplineSet
719 115.75 m 257
 500.5 253.25 l 257
 500.5 239.75 l 257
 718.5 97.25 l 257
 719 115.75 l 257
719 115.75 m 257
 531 -58.75 l 257
 535 -77.75 l 257
 718.5 97.25 l 257
 719 115.75 l 257
510 124.75 m 257
 305 272.75 l 257
 305 252.75 l 257
 510.5 110.25 l 257
 510 124.75 l 257
510.5 124.75 m 257
 319 -64.25 l 257
 327.5 -77.75 l 257
 510.5 109.75 l 257
 510.5 124.75 l 257
EndSplineSet
EndChar

StartChar: onequarter
Encoding: 188 188 123
Width: 764
VWidth: 14
Flags: HW
LayerCount: 2
Fore
SplineSet
585.75 754.25 m 257
 292.25 19.25 l 257
 343.75 19.25 l 257
 637.25 754.25 l 257
 585.75 754.25 l 257
406.25 536.75 m 257
 433.25 536.75 l 257
 433.25 789.25 l 257
 406.25 789.25 l 257
 406.25 536.75 l 257
408.75 789.25 m 257
 353.75 728.25 l 257
 363.75 709.75 l 257
 423.25 784.75 l 257
 408.75 789.25 l 257
536.75 203.75 m 257
 706.25 203.75 l 257
 706.25 17.75 l 257
 718.75 17.75 l 257
 718.75 398.25 l 257
 705.75 398.25 l 257
 705.75 218.75 l 257
 549.75 218.75 l 257
 549.75 399.25 l 257
 536.75 399.25 l 257
 536.75 203.75 l 257
EndSplineSet
EndChar

StartChar: onehalf
Encoding: 189 189 124
Width: 765
VWidth: 12
Flags: HW
LayerCount: 2
Fore
SplineSet
595.75 752.5 m 257
 302.25 17.5 l 257
 353.75 17.5 l 257
 647.25 752.5 l 257
 595.75 752.5 l 257
402.25 521 m 257
 434.25 521 l 257
 434.25 787.5 l 257
 402.25 787.5 l 257
 402.25 521 l 257
402.25 787.5 m 257
 338.75 766.5 l 257
 365.75 761.5 l 257
 434.25 787.5 l 257
 402.25 787.5 l 257
556.25 324 m 257
 701.25 324 l 257
 701.25 203 l 257
 557.75 203 l 257
 557.75 12.5 l 257
 710.25 12.5 l 257
 710.25 25 l 257
 569.25 25 l 257
 569.25 190.5 l 257
 712.75 190.5 l 257
 712.75 336.5 l 257
 556.25 336.5 l 257
 556.25 324 l 257
EndSplineSet
EndChar

StartChar: threequarters
Encoding: 190 190 125
Width: 774
VWidth: -4
Flags: HW
LayerCount: 2
Fore
SplineSet
613.5 738 m 257
 328.5 -0.5 l 257
 350 -37 l 257
 635 701.5 l 257
 613.5 738 l 257
300.5 632.5 m 257
 459.5 632.5 l 257
 459.5 538.5 l 257
 291.5 538.5 l 257
 291.5 504 l 257
 482.5 504 l 257
 482.5 773 l 257
 298 773 l 257
 298 738.5 l 257
 459 738.5 l 257
 459 666.5 l 257
 300.5 666.5 l 257
 300.5 632.5 l 257
583.5 166.5 m 257
 735 166.5 l 257
 735 0 l 257
 756.5 0 l 257
 756.5 340 l 257
 734.5 340 l 257
 734.5 189.5 l 257
 607 189.5 l 257
 607 341 l 257
 583.5 341 l 257
 583.5 166.5 l 257
EndSplineSet
EndChar

StartChar: questiondown
Encoding: 191 191 126
Width: 768
VWidth: 4
Flags: HW
LayerCount: 2
Fore
SplineSet
584 641.25 m 257
 584 764.25 l 257
 555 764.25 l 257
 555 640.75 l 257
 584 641.25 l 257
672 4.75 m 257
 672 35.25 l 257
 354 35.25 l 257
 354 4.75 l 257
 672 4.75 l 257
382 7.25 m 257
 382 281.25 l 257
 352 281.25 l 257
 352 7.25 l 257
 382 7.25 l 257
584 256.75 m 257
 584 287.75 l 257
 352 287.75 l 257
 352 256.75 l 257
 584 256.75 l 257
584 258.75 m 257
 584 568.25 l 257
 555 568.25 l 257
 555 258.75 l 257
 584 258.75 l 257
EndSplineSet
EndChar

StartChar: Agrave
Encoding: 192 192 127
Width: 768
VWidth: 181
Flags: HW
LayerCount: 2
Fore
SplineSet
459.5 1121.75 m 261
 521.5 1019.75 l 261
 551.5 1046.75 l 261
 489.5 1149.25 l 261
 459.5 1121.75 l 261
EndSplineSet
Refer: 34 65 N 1 0 0 1 0 0 2
EndChar

StartChar: Aacute
Encoding: 193 193 128
Width: 768
VWidth: 171
Flags: HW
LayerCount: 2
Fore
SplineSet
534.5 1119.25 m 261
 495 1026.75 l 261
 521.5 1009.75 l 261
 561 1102.25 l 261
 534.5 1119.25 l 261
EndSplineSet
Refer: 34 65 N 1 0 0 1 0 0 2
EndChar

StartChar: Acircumflex
Encoding: 194 194 129
Width: 768
VWidth: 200
Flags: HW
LayerCount: 2
Fore
SplineSet
521.5 1204.5 m 261
 503.5 1204.5 l 261
 437.5 1049.5 l 261
 451 1041 l 261
 521.5 1204.5 l 261
505 1205.5 m 261
 586 1038.5 l 261
 606.5 1047.5 l 261
 523.5 1205.5 l 261
 505 1205.5 l 261
EndSplineSet
Refer: 34 65 N 1 0 0 1 0 0 2
EndChar

StartChar: Atilde
Encoding: 195 195 130
Width: 778
VWidth: 166
Flags: HW
LayerCount: 2
Fore
SplineSet
459 1065 m 261
 459 1040 l 261
 634 1004.5 l 261
 634 1029.5 l 261
 459 1065 l 261
339 1037 m 261
 346 1008 l 261
 459 1040 l 261
 459 1065 l 261
 339 1037 l 261
634 1029.5 m 261
 634 1004.5 l 261
 725 1080 l 261
 718 1103.5 l 261
 634 1029.5 l 261
EndSplineSet
Refer: 34 65 N 1 0 0 1 0 0 2
EndChar

StartChar: Adieresis
Encoding: 196 196 131
Width: 768
VWidth: 142
Flags: HW
LayerCount: 2
Fore
SplineSet
433.5 1030.75 m 261
 433.5 980.25 l 261
 489.5 980.25 l 261
 489.5 1030.75 l 261
 433.5 1030.75 l 261
554.5 1030.75 m 261
 554.5 980.25 l 261
 610.5 980.25 l 261
 610.5 1030.75 l 261
 554.5 1030.75 l 261
EndSplineSet
Refer: 34 65 N 1 0 0 1 0 0 2
EndChar

StartChar: Aring
Encoding: 197 197 132
Width: 768
VWidth: 182
Flags: HW
LayerCount: 2
Fore
SplineSet
449 1137.75 m 261
 594 1137.75 l 261
 594 1011.25 l 261
 449 1011.25 l 261
 449 1137.75 l 261
432 1152.25 m 261
 432 997.75 l 261
 612 997.75 l 261
 612 1152.25 l 261
 432 1152.25 l 261
EndSplineSet
Refer: 34 65 N 1 0 0 1 0 0 2
EndChar

StartChar: AE
Encoding: 198 198 133
Width: 768
VWidth: -13
Flags: HW
LayerCount: 2
Fore
SplineSet
520 18.5 m 257
 520 -12.5 l 257
 730 -12.5 l 257
 730 18.5 l 257
 520 18.5 l 257
294 -12.5 m 257
 325 -12.5 l 257
 325 762.5 l 257
 294 762.5 l 257
 294 -12.5 l 257
316 732 m 257
 719 732 l 257
 719 762.5 l 257
 316 762.5 l 257
 316 732 l 257
318 499 m 257
 318 469.5 l 257
 693 469.5 l 257
 693 499 l 257
 318 499 l 257
507 -12.5 m 257
 537 -12.5 l 257
 537 762.5 l 257
 507 762.5 l 257
 507 -12.5 l 257
EndSplineSet
EndChar

StartChar: Ccedilla
Encoding: 199 199 134
Width: 822
VWidth: -251
Flags: HW
LayerCount: 2
Fore
SplineSet
560.125 -241.8125 m 261
 560.125 -361.8125 l 261
 589.125 -361.8125 l 261
 589.125 -241.8125 l 261
 560.125 -241.8125 l 261
563.125 -505.3125 m 261
 563.125 -534.8125 l 261
 786.125 -534.8125 l 261
 786.125 -505.3125 l 261
 563.125 -505.3125 l 261
756.625 -331.8125 m 261
 756.625 -517.8125 l 261
 786.125 -517.8125 l 261
 786.125 -331.8125 l 261
 756.625 -331.8125 l 261
563.125 -331.8125 m 261
 563.125 -361.8125 l 261
 786.125 -361.8125 l 261
 786.125 -331.8125 l 261
 563.125 -331.8125 l 261
EndSplineSet
Refer: 36 67 N 1 0 0 1 0 0 2
EndChar

StartChar: Egrave
Encoding: 200 200 135
Width: 768
VWidth: 180
Flags: HW
LayerCount: 2
Fore
SplineSet
455 1120.8125 m 261
 517 1018.8125 l 261
 547 1045.8125 l 261
 485 1148.3125 l 261
 455 1120.8125 l 261
EndSplineSet
Refer: 38 69 N 1 0 0 1 0 0 2
EndChar

StartChar: Eacute
Encoding: 201 201 136
Width: 768
VWidth: 170
Flags: HW
LayerCount: 2
Fore
SplineSet
530.5 1118.3125 m 261
 491 1025.8125 l 261
 517.5 1008.8125 l 261
 557 1101.3125 l 261
 530.5 1118.3125 l 261
EndSplineSet
Refer: 38 69 N 1 0 0 1 0 0 2
EndChar

StartChar: Ecircumflex
Encoding: 202 202 137
Width: 768
VWidth: 199
Flags: HW
LayerCount: 2
Fore
SplineSet
516.5 1203.5625 m 261
 498.5 1203.5625 l 261
 432.5 1048.5625 l 261
 446 1040.0625 l 261
 516.5 1203.5625 l 261
500 1204.5625 m 261
 581 1037.5625 l 261
 601.5 1046.5625 l 261
 518.5 1204.5625 l 261
 500 1204.5625 l 261
EndSplineSet
Refer: 38 69 N 1 0 0 1 0 0 2
EndChar

StartChar: Edieresis
Encoding: 203 203 138
Width: 768
VWidth: 141
Flags: HW
LayerCount: 2
Fore
SplineSet
428.5 1029.8125 m 261
 428.5 979.3125 l 261
 484.5 979.3125 l 261
 484.5 1029.8125 l 261
 428.5 1029.8125 l 261
549.5 1029.8125 m 261
 549.5 979.3125 l 261
 605.5 979.3125 l 261
 605.5 1029.8125 l 261
 549.5 1029.8125 l 261
EndSplineSet
Refer: 38 69 N 1 0 0 1 0 0 2
EndChar

StartChar: Igrave
Encoding: 204 204 139
Width: 768
VWidth: 181
Flags: HW
LayerCount: 2
Fore
SplineSet
446 1121.75 m 261
 508 1019.75 l 261
 538 1046.75 l 261
 476 1149.25 l 261
 446 1121.75 l 261
EndSplineSet
Refer: 42 73 N 1 0 0 1 0 0 2
EndChar

StartChar: Iacute
Encoding: 205 205 140
Width: 768
VWidth: 171
Flags: HW
LayerCount: 2
Fore
SplineSet
521.5 1119.25 m 261
 482 1026.75 l 261
 508.5 1009.75 l 261
 548 1102.25 l 261
 521.5 1119.25 l 261
EndSplineSet
Refer: 42 73 N 1 0 0 1 0 0 2
EndChar

StartChar: Icircumflex
Encoding: 206 206 141
Width: 768
VWidth: 200
Flags: HW
LayerCount: 2
Fore
SplineSet
507.5 1204.5 m 261
 489.5 1204.5 l 261
 423.5 1049.5 l 261
 437 1041 l 261
 507.5 1204.5 l 261
491 1205.5 m 261
 572 1038.5 l 261
 592.5 1047.5 l 261
 509.5 1205.5 l 261
 491 1205.5 l 261
EndSplineSet
Refer: 42 73 N 1 0 0 1 0 0 2
EndChar

StartChar: Idieresis
Encoding: 207 207 142
Width: 768
VWidth: 142
Flags: HW
LayerCount: 2
Fore
SplineSet
419.5 1030.75 m 261
 419.5 980.25 l 261
 475.5 980.25 l 261
 475.5 1030.75 l 261
 419.5 1030.75 l 261
540.5 1030.75 m 261
 540.5 980.25 l 261
 596.5 980.25 l 261
 596.5 1030.75 l 261
 540.5 1030.75 l 261
EndSplineSet
Refer: 42 73 N 1 0 0 1 0 0 2
EndChar

StartChar: Eth
Encoding: 208 208 143
Width: 768
VWidth: -12
Flags: HW
LayerCount: 2
Fore
SplineSet
283.5 455.75 m 257
 283.5 424.75 l 257
 437 424.75 l 257
 437 455.75 l 257
 283.5 455.75 l 257
337 764.75 m 257
 337 -11.75 l 257
 367.5 -11.75 l 257
 367.5 764.75 l 257
 337 764.75 l 257
500 764.75 m 257
 500 730.25 l 257
 740.5 470.25 l 257
 740.5 499.75 l 257
 500 764.75 l 257
504 18.25 m 257
 504 -11.75 l 257
 740.5 470.25 l 257
 740.5 499.75 l 257
 504 18.25 l 257
357 764.75 m 257
 357 730.25 l 257
 500 730.25 l 257
 500 764.75 l 257
 357 764.75 l 257
361 18.25 m 257
 361 -11.75 l 257
 504 -11.75 l 257
 504 18.25 l 257
 361 18.25 l 257
EndSplineSet
EndChar

StartChar: Ntilde
Encoding: 209 209 144
Width: 768
VWidth: 165
Flags: HW
LayerCount: 2
Fore
SplineSet
439 1064.0625 m 261
 439 1039.0625 l 261
 614 1003.5625 l 261
 614 1028.5625 l 261
 439 1064.0625 l 261
319 1036.0625 m 261
 326 1007.0625 l 261
 439 1039.0625 l 261
 439 1064.0625 l 261
 319 1036.0625 l 261
614 1028.5625 m 261
 614 1003.5625 l 261
 705 1079.0625 l 261
 698 1102.5625 l 261
 614 1028.5625 l 261
EndSplineSet
Refer: 47 78 N 1 0 0 1 0 0 2
EndChar

StartChar: Ograve
Encoding: 210 210 145
Width: 768
VWidth: 180
Flags: HW
LayerCount: 2
Fore
SplineSet
450 1120.8125 m 261
 512 1018.8125 l 261
 542 1045.8125 l 261
 480 1148.3125 l 261
 450 1120.8125 l 261
EndSplineSet
Refer: 48 79 N 1 0 0 1 0 0 2
EndChar

StartChar: Oacute
Encoding: 211 211 146
Width: 768
VWidth: 170
Flags: HW
LayerCount: 2
Fore
SplineSet
525 1118.3125 m 261
 485.5 1025.8125 l 261
 512 1008.8125 l 261
 551.5 1101.3125 l 261
 525 1118.3125 l 261
EndSplineSet
Refer: 48 79 N 1 0 0 1 0 0 2
EndChar

StartChar: Ocircumflex
Encoding: 212 212 147
Width: 768
VWidth: 199
Flags: HW
LayerCount: 2
Fore
SplineSet
511.5 1203.5625 m 261
 493.5 1203.5625 l 261
 427.5 1048.5625 l 261
 441 1040.0625 l 261
 511.5 1203.5625 l 261
495 1204.5625 m 261
 576 1037.5625 l 261
 596.5 1046.5625 l 261
 513.5 1204.5625 l 261
 495 1204.5625 l 261
EndSplineSet
Refer: 48 79 N 1 0 0 1 0 0 2
EndChar

StartChar: Otilde
Encoding: 213 213 148
Width: 768
VWidth: 165
Flags: HW
LayerCount: 2
Fore
SplineSet
439 1064.0625 m 261
 439 1039.0625 l 261
 614 1003.5625 l 261
 614 1028.5625 l 261
 439 1064.0625 l 261
319 1036.0625 m 261
 326 1007.0625 l 261
 439 1039.0625 l 261
 439 1064.0625 l 261
 319 1036.0625 l 261
614 1028.5625 m 261
 614 1003.5625 l 261
 705 1079.0625 l 261
 698 1102.5625 l 261
 614 1028.5625 l 261
EndSplineSet
Refer: 48 79 N 1 0 0 1 0 0 2
EndChar

StartChar: Odieresis
Encoding: 214 214 149
Width: 768
VWidth: 141
Flags: HW
LayerCount: 2
Fore
SplineSet
423.5 1029.8125 m 261
 423.5 979.3125 l 261
 479.5 979.3125 l 261
 479.5 1029.8125 l 261
 423.5 1029.8125 l 261
544.5 1029.8125 m 261
 544.5 979.3125 l 261
 600.5 979.3125 l 261
 600.5 1029.8125 l 261
 544.5 1029.8125 l 261
EndSplineSet
Refer: 48 79 N 1 0 0 1 0 0 2
EndChar

StartChar: multiply
Encoding: 215 215 150
Width: 768
VWidth: 2
Flags: HW
LayerCount: 2
Fore
SplineSet
304 150.25 m 257
 352 150.25 l 257
 716 664.25 l 257
 675 664.25 l 257
 304 150.25 l 257
303 663.75 m 257
 677 146.75 l 257
 721 146.75 l 257
 345 663.75 l 257
 303 663.75 l 257
EndSplineSet
EndChar

StartChar: Oslash
Encoding: 216 216 151
Width: 768
VWidth: -12
Flags: HW
LayerCount: 2
Fore
SplineSet
705.5 803.75 m 257
 290.5 -35.25 l 257
 310.5 -48.75 l 257
 733.5 782.75 l 257
 705.5 803.75 l 257
309.5 758.75 m 257
 309.5 -11.25 l 257
 339.5 -11.25 l 257
 339.5 758.75 l 257
 309.5 758.75 l 257
680 757.25 m 257
 680 -11.25 l 257
 709.5 -11.25 l 257
 709.5 757.25 l 257
 680 757.25 l 257
324.5 757.75 m 257
 324.5 727.75 l 257
 694.5 727.75 l 257
 694.5 757.75 l 257
 324.5 757.75 l 257
329.5 26.25 m 257
 329.5 -11.25 l 257
 680 -11.25 l 257
 680 26.25 l 257
 329.5 26.25 l 257
EndSplineSet
EndChar

StartChar: Ugrave
Encoding: 217 217 152
Width: 768
VWidth: 180
Flags: HW
LayerCount: 2
Fore
SplineSet
438 1120.8125 m 261
 500 1018.8125 l 261
 530 1045.8125 l 261
 468 1148.3125 l 261
 438 1120.8125 l 261
EndSplineSet
Refer: 54 85 N 1 0 0 1 0 0 2
EndChar

StartChar: Uacute
Encoding: 218 218 153
Width: 768
VWidth: 170
Flags: HW
LayerCount: 2
Fore
SplineSet
563 1118.3125 m 261
 523.5 1025.8125 l 261
 550 1008.8125 l 261
 589.5 1101.3125 l 261
 563 1118.3125 l 261
EndSplineSet
Refer: 54 85 N 1 0 0 1 0 0 2
EndChar

StartChar: Ucircumflex
Encoding: 219 219 154
Width: 768
VWidth: 199
Flags: HW
LayerCount: 2
Fore
SplineSet
518.375 1203.5625 m 261
 500.375 1203.5625 l 261
 434.375 1048.5625 l 261
 447.875 1040.0625 l 261
 518.375 1203.5625 l 261
501.875 1204.5625 m 261
 582.875 1037.5625 l 261
 603.375 1046.5625 l 261
 520.375 1204.5625 l 261
 501.875 1204.5625 l 261
EndSplineSet
Refer: 54 85 N 1 0 0 1 0 0 2
EndChar

StartChar: Udieresis
Encoding: 220 220 155
Width: 762
VWidth: 141
Flags: HW
LayerCount: 2
Fore
SplineSet
405.625 1029.8125 m 261
 405.625 979.3125 l 261
 461.625 979.3125 l 261
 461.625 1029.8125 l 261
 405.625 1029.8125 l 261
526.625 1029.8125 m 261
 526.625 979.3125 l 261
 582.625 979.3125 l 261
 582.625 1029.8125 l 261
 526.625 1029.8125 l 261
EndSplineSet
Refer: 54 85 N 1 0 0 1 0 0 2
EndChar

StartChar: Yacute
Encoding: 221 221 156
Width: 768
VWidth: 170
Flags: HW
LayerCount: 2
Fore
SplineSet
519.5 1118.125 m 261
 480 1025.625 l 261
 506.5 1008.625 l 261
 546 1101.125 l 261
 519.5 1118.125 l 261
EndSplineSet
Refer: 58 89 N 1 0 0 1 0 0 2
EndChar

StartChar: Thorn
Encoding: 222 222 157
Width: 768
VWidth: -13
Flags: HW
LayerCount: 2
Fore
SplineSet
323 758.75 m 257
 323 -7.75 l 257
 353 -7.75 l 257
 353 758.75 l 257
 323 758.75 l 257
347 607.75 m 257
 347 581.25 l 257
 691 581.25 l 257
 691 607.75 l 257
 347 607.75 l 257
671 608.75 m 257
 671 253.25 l 257
 701 253.25 l 257
 701 608.75 l 257
 671 608.75 l 257
357 259.75 m 257
 357 229.75 l 257
 700 229.75 l 257
 700 259.75 l 257
 357 259.75 l 257
EndSplineSet
EndChar

StartChar: germandbls
Encoding: 223 223 158
Width: 768
VWidth: -13
Flags: HW
LayerCount: 2
Fore
SplineSet
294 529.5 m 257
 294 499 l 257
 419.5 499 l 257
 419.5 529.5 l 257
 294 529.5 l 257
386.5 762.5 m 257
 386.5 -12.5 l 257
 418.5 -12.5 l 257
 418.5 762.5 l 257
 386.5 762.5 l 257
412.5 762.5 m 257
 412.5 731.5 l 257
 716 731.5 l 257
 716 762.5 l 257
 412.5 762.5 l 257
699 762.5 m 257
 699 499 l 257
 729.5 499 l 257
 729.5 762.5 l 257
 699 762.5 l 257
701 518.5 m 257
 582 518.5 l 257
 582 400.5 l 257
 701 400.5 l 257
 701 518.5 l 257
700 411.5 m 257
 700 75 l 257
 729 75 l 257
 729 411.5 l 257
 700 411.5 l 257
558.5 81 m 257
 558.5 53 l 257
 730 53 l 257
 730 81 l 257
 558.5 81 l 257
EndSplineSet
EndChar

StartChar: agrave
Encoding: 224 224 159
Width: 768
VWidth: 16
Flags: HW
LayerCount: 2
Fore
SplineSet
452.5 692.5 m 261
 514.5 590.5 l 261
 544.5 617.5 l 261
 482.5 720 l 261
 452.5 692.5 l 261
EndSplineSet
Refer: 66 97 N 1 0 0 1 0 0 2
EndChar

StartChar: aacute
Encoding: 225 225 160
Width: 771
VWidth: 31
Flags: HW
LayerCount: 2
Fore
SplineSet
580.5 715 m 261
 541 622.5 l 261
 567.5 605.5 l 261
 607 698 l 261
 580.5 715 l 261
EndSplineSet
Refer: 66 97 N 1 0 0 1 0 0 2
EndChar

StartChar: acircumflex
Encoding: 226 226 161
Width: 768
VWidth: 58
Flags: HW
LayerCount: 2
Fore
SplineSet
511.5 795 m 261
 493.5 795 l 261
 427.5 640 l 261
 441 631.5 l 261
 511.5 795 l 261
495 796 m 261
 576 629 l 261
 596.5 638 l 261
 513.5 796 l 261
 495 796 l 261
EndSplineSet
Refer: 66 97 N 1 0 0 1 0 0 2
EndChar

StartChar: atilde
Encoding: 227 227 162
Width: 765
VWidth: 25
Flags: HW
LayerCount: 2
Fore
SplineSet
433 660.75 m 261
 433 635.75 l 261
 608 600.25 l 261
 608 625.25 l 261
 433 660.75 l 261
313 632.75 m 261
 320 603.75 l 261
 433 635.75 l 261
 433 660.75 l 261
 313 632.75 l 261
608 625.25 m 261
 608 600.25 l 261
 699 675.75 l 261
 692 699.25 l 261
 608 625.25 l 261
EndSplineSet
Refer: 66 97 N 1 0 0 1 0 0 2
EndChar

StartChar: adieresis
Encoding: 228 228 163
Width: 770
VWidth: 1
Flags: HW
LayerCount: 2
Fore
SplineSet
429.25 626.5 m 261
 429.25 576 l 261
 485.25 576 l 261
 485.25 626.5 l 261
 429.25 626.5 l 261
550.25 626.5 m 261
 550.25 576 l 261
 606.25 576 l 261
 606.25 626.5 l 261
 550.25 626.5 l 261
EndSplineSet
Refer: 66 97 N 1 0 0 1 0 0 2
EndChar

StartChar: aring
Encoding: 229 229 164
Width: 771
VWidth: 53
Flags: HW
LayerCount: 2
Fore
SplineSet
445 768 m 261
 590 768 l 261
 590 641.5 l 261
 445 641.5 l 261
 445 768 l 261
428 782.5 m 261
 428 628 l 261
 608 628 l 261
 608 782.5 l 261
 428 782.5 l 261
EndSplineSet
Refer: 66 97 N 1 0 0 1 0 0 2
EndChar

StartChar: ae
Encoding: 230 230 165
Width: 768
VWidth: -120
Flags: HW
LayerCount: 2
Fore
SplineSet
277.5 392.25 m 257
 277.5 361.25 l 257
 722.5 361.25 l 257
 722.5 392.25 l 257
 277.5 392.25 l 257
512.5 392.25 m 257
 512.5 -119.25 l 257
 542.5 -119.25 l 257
 542.5 392.25 l 257
 512.5 392.25 l 257
289.5 180.25 m 257
 289.5 149.75 l 257
 709.5 149.75 l 257
 709.5 180.25 l 257
 289.5 180.25 l 257
289.5 168.25 m 257
 289.5 -119.25 l 257
 319.5 -119.25 l 257
 319.5 168.25 l 257
 289.5 168.25 l 257
288.5 -88.75 m 257
 288.5 -119.25 l 257
 748.5 -119.25 l 257
 748.5 -88.75 l 257
 288.5 -88.75 l 257
706.5 392.25 m 257
 706.5 149.75 l 257
 737.5 149.75 l 257
 737.5 392.25 l 257
 706.5 392.25 l 257
EndSplineSet
EndChar

StartChar: ccedilla
Encoding: 231 231 166
Width: 830
VWidth: -325
Flags: HW
LayerCount: 2
Fore
SplineSet
559 -314.6875 m 261
 559 -434.6875 l 261
 588 -434.6875 l 261
 588 -314.6875 l 261
 559 -314.6875 l 261
562 -578.1875 m 261
 562 -607.6875 l 261
 785 -607.6875 l 261
 785 -578.1875 l 261
 562 -578.1875 l 261
755.5 -404.6875 m 261
 755.5 -590.6875 l 261
 785 -590.6875 l 261
 785 -404.6875 l 261
 755.5 -404.6875 l 261
562 -404.6875 m 261
 562 -434.6875 l 261
 785 -434.6875 l 261
 785 -404.6875 l 261
 562 -404.6875 l 261
EndSplineSet
Refer: 68 99 N 1 0 0 1 0 0 2
EndChar

StartChar: egrave
Encoding: 232 232 167
Width: 768
VWidth: 40
Flags: HW
LayerCount: 2
Fore
SplineSet
462.5 717.4375 m 261
 524.5 615.4375 l 261
 554.5 642.4375 l 261
 492.5 744.9375 l 261
 462.5 717.4375 l 261
EndSplineSet
Refer: 70 101 N 1 0 0 1 0 0 2
EndChar

StartChar: eacute
Encoding: 233 233 168
Width: 768
VWidth: 30
Flags: HW
LayerCount: 2
Fore
SplineSet
537.5 714.9375 m 261
 498 622.4375 l 261
 524.5 605.4375 l 261
 564 697.9375 l 261
 537.5 714.9375 l 261
EndSplineSet
Refer: 70 101 N 1 0 0 1 0 0 2
EndChar

StartChar: ecircumflex
Encoding: 234 234 169
Width: 773
VWidth: 59
Flags: HW
LayerCount: 2
Fore
SplineSet
530 799.4375 m 261
 512 799.4375 l 261
 446 644.4375 l 261
 459.5 635.9375 l 261
 530 799.4375 l 261
513.5 800.4375 m 261
 594.5 633.4375 l 261
 615 642.4375 l 261
 532 800.4375 l 261
 513.5 800.4375 l 261
EndSplineSet
Refer: 70 101 N 1 0 0 1 0 0 2
EndChar

StartChar: edieresis
Encoding: 235 235 170
Width: 775
VWidth: 1
Flags: HW
LayerCount: 2
Fore
SplineSet
444 626.4375 m 261
 444 575.9375 l 261
 500 575.9375 l 261
 500 626.4375 l 261
 444 626.4375 l 261
565 626.4375 m 261
 565 575.9375 l 261
 621 575.9375 l 261
 621 626.4375 l 261
 565 626.4375 l 261
EndSplineSet
Refer: 70 101 N 1 0 0 1 0 0 2
EndChar

StartChar: igrave
Encoding: 236 236 171
Width: 768
VWidth: -23
Flags: HW
LayerCount: 2
Fore
SplineSet
384 653.5 m 261
 446 551.5 l 261
 476 578.5 l 261
 414 681 l 261
 384 653.5 l 261
EndSplineSet
Refer: 240 305 N 1 0 0 1 0 0 2
EndChar

StartChar: iacute
Encoding: 237 237 172
Width: 768
VWidth: -33
Flags: HW
LayerCount: 2
Fore
SplineSet
459.5 651 m 261
 420 558.5 l 261
 446.5 541.5 l 261
 486 634 l 261
 459.5 651 l 261
EndSplineSet
Refer: 240 305 N 1 0 0 1 0 0 2
EndChar

StartChar: icircumflex
Encoding: 238 238 173
Width: 768
VWidth: -30
Flags: HW
LayerCount: 2
Fore
SplineSet
445.5 710.5 m 261
 427.5 710.5 l 261
 361.5 555.5 l 261
 375 547 l 261
 445.5 710.5 l 261
429 711.5 m 261
 510 544.5 l 261
 530.5 553.5 l 261
 447.5 711.5 l 261
 429 711.5 l 261
EndSplineSet
Refer: 240 305 N 1 0 0 1 0 0 2
EndChar

StartChar: idieresis
Encoding: 239 239 174
Width: 768
VWidth: -63
Flags: HW
LayerCount: 2
Fore
SplineSet
357.5 562.5 m 261
 357.5 512 l 261
 413.5 512 l 261
 413.5 562.5 l 261
 357.5 562.5 l 261
478.5 562.5 m 261
 478.5 512 l 261
 534.5 512 l 261
 534.5 562.5 l 261
 478.5 562.5 l 261
EndSplineSet
Refer: 240 305 N 1 0 0 1 0 0 2
EndChar

StartChar: eth
Encoding: 240 240 175
Width: 768
VWidth: 12
Flags: HW
LayerCount: 2
Fore
SplineSet
376 787.5 m 257
 678 12.5 l 257
 702 12.5 l 257
 404 787.5 l 257
 376 787.5 l 257
342 524 m 257
 342 494.5 l 257
 504 494.5 l 257
 504 524 l 257
 342 524 l 257
322 524 m 257
 322 12.5 l 257
 352 12.5 l 257
 352 524 l 257
 322 524 l 257
345 42 m 257
 345 12.5 l 257
 678 12.5 l 257
 678 42 l 257
 345 42 l 257
336 720.5 m 257
 336 688 l 257
 508 688 l 257
 508 720.5 l 257
 336 720.5 l 257
EndSplineSet
EndChar

StartChar: ntilde
Encoding: 241 241 176
Width: 768
VWidth: 25
Flags: HW
LayerCount: 2
Fore
SplineSet
439 660.6875 m 261
 439 635.6875 l 261
 614 600.1875 l 261
 614 625.1875 l 261
 439 660.6875 l 261
319 632.6875 m 261
 326 603.6875 l 261
 439 635.6875 l 261
 439 660.6875 l 261
 319 632.6875 l 261
614 625.1875 m 261
 614 600.1875 l 261
 705 675.6875 l 261
 698 699.1875 l 261
 614 625.1875 l 261
EndSplineSet
Refer: 79 110 N 1 0 0 1 0 0 2
EndChar

StartChar: ograve
Encoding: 242 242 177
Width: 768
VWidth: 40
Flags: HW
LayerCount: 2
Fore
SplineSet
451 717.4375 m 261
 513 615.4375 l 261
 543 642.4375 l 261
 481 744.9375 l 261
 451 717.4375 l 261
EndSplineSet
Refer: 80 111 N 1 0 0 1 0 0 2
EndChar

StartChar: oacute
Encoding: 243 243 178
Width: 768
VWidth: 30
Flags: HW
LayerCount: 2
Fore
SplineSet
526.5 714.9375 m 261
 487 622.4375 l 261
 513.5 605.4375 l 261
 553 697.9375 l 261
 526.5 714.9375 l 261
EndSplineSet
Refer: 80 111 N 1 0 0 1 0 0 2
EndChar

StartChar: ocircumflex
Encoding: 244 244 179
Width: 768
VWidth: 59
Flags: HW
LayerCount: 2
Fore
SplineSet
512.5 799.4375 m 261
 494.5 799.4375 l 261
 428.5 644.4375 l 261
 442 635.9375 l 261
 512.5 799.4375 l 261
496 800.4375 m 261
 577 633.4375 l 261
 597.5 642.4375 l 261
 514.5 800.4375 l 261
 496 800.4375 l 261
EndSplineSet
Refer: 80 111 N 1 0 0 1 0 0 2
EndChar

StartChar: otilde
Encoding: 245 245 180
Width: 769
VWidth: 25
Flags: HW
LayerCount: 2
Fore
SplineSet
441 660.6875 m 261
 441 635.6875 l 261
 616 600.1875 l 261
 616 625.1875 l 261
 441 660.6875 l 261
321 632.6875 m 261
 328 603.6875 l 261
 441 635.6875 l 261
 441 660.6875 l 261
 321 632.6875 l 261
616 625.1875 m 261
 616 600.1875 l 261
 707 675.6875 l 261
 700 699.1875 l 261
 616 625.1875 l 261
EndSplineSet
Refer: 80 111 N 1 0 0 1 0 0 2
EndChar

StartChar: odieresis
Encoding: 246 246 181
Width: 768
VWidth: 1
Flags: HW
LayerCount: 2
Fore
SplineSet
424.5 626.4375 m 261
 424.5 575.9375 l 261
 480.5 575.9375 l 261
 480.5 626.4375 l 261
 424.5 626.4375 l 261
545.5 626.4375 m 261
 545.5 575.9375 l 261
 601.5 575.9375 l 261
 601.5 626.4375 l 261
 545.5 626.4375 l 261
EndSplineSet
Refer: 80 111 N 1 0 0 1 0 0 2
EndChar

StartChar: divide
Encoding: 247 247 182
Width: 768
VWidth: -47
Flags: HW
LayerCount: 2
Fore
SplineSet
494.5 85 m 257
 494.5 53.5 l 257
 545.5 53.5 l 257
 545.5 85 l 257
 494.5 85 l 257
489 508.5 m 257
 489 476.5 l 257
 534.5 476.5 l 257
 534.5 508.5 l 257
 489 508.5 l 257
305.5 284 m 257
 305.5 253 l 257
 718.5 253 l 257
 718.5 284 l 257
 305.5 284 l 257
EndSplineSet
EndChar

StartChar: oslash
Encoding: 248 248 183
Width: 768
VWidth: -112
Flags: HW
LayerCount: 2
Fore
SplineSet
714 451.25 m 257
 289 -129.25 l 257
 309 -146.25 l 257
 735 425.25 l 257
 714 451.25 l 257
306 400.25 m 257
 306 -111.25 l 257
 336 -111.25 l 257
 336 400.25 l 257
 306 400.25 l 257
684 400.25 m 257
 684 -111.25 l 257
 714 -111.25 l 257
 714 400.25 l 257
 684 400.25 l 257
327 400.25 m 257
 327 370.25 l 257
 700 370.25 l 257
 700 400.25 l 257
 327 400.25 l 257
328 -79.75 m 257
 328 -111.25 l 257
 702 -111.25 l 257
 702 -79.75 l 257
 328 -79.75 l 257
EndSplineSet
EndChar

StartChar: ugrave
Encoding: 249 249 184
Width: 768
VWidth: 43
Flags: HW
LayerCount: 2
Fore
SplineSet
427.5 723.375 m 261
 489.5 621.375 l 261
 519.5 648.375 l 261
 457.5 750.875 l 261
 427.5 723.375 l 261
EndSplineSet
Refer: 86 117 N 1 0 0 1 0 0 2
EndChar

StartChar: uacute
Encoding: 250 250 185
Width: 768
VWidth: 33
Flags: HW
LayerCount: 2
Fore
SplineSet
502.5 720.875 m 261
 463 628.375 l 261
 489.5 611.375 l 261
 529 703.875 l 261
 502.5 720.875 l 261
EndSplineSet
Refer: 86 117 N 1 0 0 1 0 0 2
EndChar

StartChar: ucircumflex
Encoding: 251 251 186
Width: 761
VWidth: 62
Flags: HW
LayerCount: 2
Fore
SplineSet
483 806.125 m 261
 465 806.125 l 261
 399 651.125 l 261
 412.5 642.625 l 261
 483 806.125 l 261
466.5 807.125 m 261
 547.5 640.125 l 261
 568 649.125 l 261
 485 807.125 l 261
 466.5 807.125 l 261
EndSplineSet
Refer: 86 117 N 1 0 0 1 0 0 2
EndChar

StartChar: udieresis
Encoding: 252 252 187
Width: 759
VWidth: 3
Flags: HW
LayerCount: 2
Fore
SplineSet
393 632.375 m 261
 393 581.875 l 261
 449 581.875 l 261
 449 632.375 l 261
 393 632.375 l 261
514 632.375 m 261
 514 581.875 l 261
 570 581.875 l 261
 570 632.375 l 261
 514 632.375 l 261
EndSplineSet
Refer: 86 117 N 1 0 0 1 0 0 2
EndChar

StartChar: yacute
Encoding: 253 253 188
Width: 768
VWidth: -46
Flags: HW
LayerCount: 2
Fore
SplineSet
525 638.8125 m 261
 485.5 546.3125 l 261
 512 529.3125 l 261
 551.5 621.8125 l 261
 525 638.8125 l 261
EndSplineSet
Refer: 90 121 N 1 0 0 1 0 0 2
EndChar

StartChar: thorn
Encoding: 254 254 189
Width: 768
VWidth: -218
Flags: HW
LayerCount: 2
Fore
SplineSet
327 299 m 257
 327 -421 l 257
 356 -421 l 257
 356 299 l 257
 327 299 l 257
353 115.5 m 257
 353 84.5 l 257
 697 84.5 l 257
 697 115.5 l 257
 353 115.5 l 257
346 -285.5 m 257
 346 -315.5 l 257
 697 -315.5 l 257
 697 -285.5 l 257
 346 -285.5 l 257
667 105 m 257
 667 -303 l 257
 697 -303 l 257
 697 105 l 257
 667 105 l 257
EndSplineSet
EndChar

StartChar: ydieresis
Encoding: 255 255 190
Width: 768
VWidth: -75
Flags: HW
LayerCount: 2
Fore
SplineSet
423.5 550.3125 m 261
 423.5 499.8125 l 261
 479.5 499.8125 l 261
 479.5 550.3125 l 261
 423.5 550.3125 l 261
544.5 550.3125 m 261
 544.5 499.8125 l 261
 600.5 499.8125 l 261
 600.5 550.3125 l 261
 544.5 550.3125 l 261
EndSplineSet
Refer: 90 121 N 1 0 0 1 0 0 2
EndChar

StartChar: Amacron
Encoding: 256 256 191
Width: 778
VWidth: 154
Flags: HW
LayerCount: 2
Fore
SplineSet
392 1017.5 m 261
 392 991.5 l 261
 672 991.5 l 261
 672 1017.5 l 261
 392 1017.5 l 261
EndSplineSet
Refer: 34 65 N 1 0 0 1 0 0 2
EndChar

StartChar: amacron
Encoding: 257 257 192
Width: 771
VWidth: -12
Flags: HW
LayerCount: 2
Fore
SplineSet
378 588.25 m 261
 378 562.25 l 261
 658 562.25 l 261
 658 588.25 l 261
 378 588.25 l 261
EndSplineSet
Refer: 66 97 N 1 0 0 1 0 0 2
EndChar

StartChar: Abreve
Encoding: 258 258 193
Width: 778
VWidth: 183
Flags: HW
LayerCount: 2
Fore
SplineSet
614.5 1056.25 m 261
 614.5 1021.25 l 261
 697 1056.25 l 261
 697 1103.75 l 261
 614.5 1056.25 l 261
452.5 1056.25 m 261
 452.5 1021.25 l 261
 614.5 1021.25 l 261
 614.5 1056.25 l 261
 452.5 1056.25 l 261
367 1096.25 m 261
 367 1056.25 l 261
 452.5 1021.25 l 261
 452.5 1056.25 l 261
 367 1096.25 l 261
EndSplineSet
Refer: 34 65 N 1 0 0 1 0 0 2
EndChar

StartChar: abreve
Encoding: 259 259 194
Width: 777
VWidth: 17
Flags: HW
LayerCount: 2
Fore
SplineSet
612.5 631.659179688 m 261
 612.5 599.841796875 l 261
 695 631.659179688 l 261
 695 674.841796875 l 261
 612.5 631.659179688 l 261
450.5 631.659179688 m 261
 450.5 599.841796875 l 261
 612.5 599.841796875 l 261
 612.5 631.659179688 l 261
 450.5 631.659179688 l 261
365 668.0234375 m 261
 365 631.659179688 l 261
 450.5 599.841796875 l 261
 450.5 631.659179688 l 261
 365 668.0234375 l 261
EndSplineSet
Refer: 66 97 N 1 0 0 1 0 0 2
EndChar

StartChar: Aogonek
Encoding: 260 260 195
Width: 844
VWidth: -187
Flags: HW
LayerCount: 2
Fore
SplineSet
573.75 -362.23828125 m 261
 573.75 -392.23828125 l 261
 844.25 -392.23828125 l 261
 844.25 -362.23828125 l 261
 573.75 -362.23828125 l 261
573.75 -186.73828125 m 261
 573.75 -392.23828125 l 261
 603.75 -392.23828125 l 261
 603.75 -186.73828125 l 261
 573.75 -186.73828125 l 261
573.75 -186.73828125 m 261
 573.75 -216.23828125 l 261
 844.75 -216.23828125 l 261
 844.75 -186.73828125 l 261
 573.75 -186.73828125 l 261
EndSplineSet
Refer: 34 65 N 1 0 0 1 0 -0.976562 2
EndChar

StartChar: aogonek
Encoding: 261 261 196
Width: 859
VWidth: -283
Flags: HW
LayerCount: 2
Fore
SplineSet
602.25 -451.5 m 261
 602.25 -481.5 l 261
 872.75 -481.5 l 261
 872.75 -451.5 l 261
 602.25 -451.5 l 261
602.25 -276 m 261
 602.25 -481.5 l 261
 632.25 -481.5 l 261
 632.25 -276 l 261
 602.25 -276 l 261
602.25 -276 m 261
 602.25 -305.5 l 261
 873.25 -305.5 l 261
 873.25 -276 l 261
 602.25 -276 l 261
EndSplineSet
Refer: 66 97 N 1 0 0 1 0 0 2
EndChar

StartChar: Cacute
Encoding: 262 262 197
Width: 768
VWidth: 195
Flags: HW
LayerCount: 2
Fore
SplineSet
525 1143.3125 m 261
 485.5 1050.8125 l 261
 512 1033.8125 l 261
 551.5 1126.3125 l 261
 525 1143.3125 l 261
EndSplineSet
Refer: 36 67 N 1 0 0 1 0 0 2
EndChar

StartChar: cacute
Encoding: 263 263 198
Width: 768
VWidth: 30
Flags: HW
LayerCount: 2
Fore
SplineSet
525 714.9375 m 261
 485.5 622.4375 l 261
 512 605.4375 l 261
 551.5 697.9375 l 261
 525 714.9375 l 261
EndSplineSet
Refer: 68 99 N 1 0 0 1 0 0 2
EndChar

StartChar: Ccircumflex
Encoding: 264 264 199
Width: 768
VWidth: 224
Flags: HW
LayerCount: 2
Fore
SplineSet
511.5 1228.5625 m 261
 493.5 1228.5625 l 261
 427.5 1073.5625 l 261
 441 1065.0625 l 261
 511.5 1228.5625 l 261
495 1229.5625 m 261
 576 1062.5625 l 261
 596.5 1071.5625 l 261
 513.5 1229.5625 l 261
 495 1229.5625 l 261
EndSplineSet
Refer: 36 67 N 1 0 0 1 0 0 2
EndChar

StartChar: ccircumflex
Encoding: 265 265 200
Width: 768
VWidth: 59
Flags: HW
LayerCount: 2
Fore
SplineSet
511.5 799.4375 m 261
 493.5 799.4375 l 261
 427.5 644.4375 l 261
 441 635.9375 l 261
 511.5 799.4375 l 261
495 800.4375 m 261
 576 633.4375 l 261
 596.5 642.4375 l 261
 513.5 800.4375 l 261
 495 800.4375 l 261
EndSplineSet
Refer: 68 99 N 1 0 0 1 0 0 2
EndChar

StartChar: Cdotaccent
Encoding: 266 266 201
Width: 768
VWidth: 166
Flags: HW
LayerCount: 2
Fore
SplineSet
484 1054.8125 m 261
 484 1004.3125 l 261
 540 1004.3125 l 261
 540 1054.8125 l 261
 484 1054.8125 l 261
EndSplineSet
Refer: 36 67 N 1 0 0 1 0 0 2
EndChar

StartChar: cdotaccent
Encoding: 267 267 202
Width: 768
VWidth: 1
Flags: HW
LayerCount: 2
Fore
SplineSet
484 626.4375 m 261
 484 575.9375 l 261
 540 575.9375 l 261
 540 626.4375 l 261
 484 626.4375 l 261
EndSplineSet
Refer: 68 99 N 1 0 0 1 0 0 2
EndChar

StartChar: Ccaron
Encoding: 268 268 203
Width: 768
VWidth: 224
Flags: HW
LayerCount: 2
Fore
SplineSet
511.5 1062.8125 m 261
 441 1226.3125 l 261
 427.5 1217.8125 l 261
 493.5 1062.8125 l 261
 511.5 1062.8125 l 261
495 1062.3125 m 261
 513.5 1062.3125 l 261
 596.5 1219.8125 l 261
 576 1228.8125 l 261
 495 1062.3125 l 261
EndSplineSet
Refer: 36 67 N 1 0 0 1 0 0 2
EndChar

StartChar: ccaron
Encoding: 269 269 204
Width: 768
VWidth: 59
Flags: HW
LayerCount: 2
Fore
SplineSet
511.5 634.4375 m 261
 441 797.9375 l 261
 427.5 789.4375 l 261
 493.5 634.4375 l 261
 511.5 634.4375 l 261
495 633.9375 m 261
 513.5 633.9375 l 261
 596.5 791.4375 l 261
 576 800.4375 l 261
 495 633.9375 l 261
EndSplineSet
Refer: 68 99 N 1 0 0 1 0 0 2
EndChar

StartChar: Dcaron
Encoding: 270 270 205
Width: 768
VWidth: 224
Flags: HW
LayerCount: 2
Fore
SplineSet
511.5 1062.8125 m 261
 441 1226.3125 l 261
 427.5 1217.8125 l 261
 493.5 1062.8125 l 261
 511.5 1062.8125 l 261
495 1062.3125 m 261
 513.5 1062.3125 l 261
 596.5 1219.8125 l 261
 576 1228.8125 l 261
 495 1062.3125 l 261
EndSplineSet
Refer: 37 68 N 1 0 0 1 0 0 2
EndChar

StartChar: dcaron
Encoding: 271 271 206
Width: 768
VWidth: 6
Flags: HW
LayerCount: 2
Fore
SplineSet
635 770.25 m 257
 635 6.75 l 257
 665 6.75 l 257
 665 770.25 l 257
 635 770.25 l 257
307 518.25 m 257
 307 487.75 l 257
 645 487.75 l 257
 645 518.25 l 257
 307 518.25 l 257
285 518.25 m 257
 285 6.75 l 257
 314 6.75 l 257
 314 518.25 l 257
 285 518.25 l 257
293 36.75 m 257
 293 6.75 l 257
 641 6.75 l 257
 641 36.75 l 257
 293 36.75 l 257
714 754.75 m 257
 714 638.75 l 257
 739 638.75 l 257
 739 754.75 l 257
 714 754.75 l 257
EndSplineSet
EndChar

StartChar: Dcroat
Encoding: 272 272 207
Width: 768
VWidth: 12
Flags: HW
LayerCount: 2
Fore
SplineSet
284 480 m 257
 284 450.5 l 257
 522 450.5 l 257
 522 480 l 257
 284 480 l 257
337 787.5 m 257
 337 12.5 l 257
 368 12.5 l 257
 368 787.5 l 257
 337 787.5 l 257
500 787.5 m 257
 500 756.5 l 257
 740 465.5 l 257
 740 524 l 257
 500 787.5 l 257
504 43 m 257
 504 12.5 l 257
 740 470 l 257
 740 524 l 257
 504 43 l 257
360 787.5 m 257
 360 756.5 l 257
 500 756.5 l 257
 500 787.5 l 257
 360 787.5 l 257
358 43 m 257
 358 12.5 l 257
 504 12.5 l 257
 504 43 l 257
 358 43 l 257
EndSplineSet
EndChar

StartChar: dcroat
Encoding: 273 273 208
Width: 768
VWidth: 6
Flags: HW
LayerCount: 2
Fore
SplineSet
646 770.25 m 257
 646 6.75 l 257
 676 6.75 l 257
 676 770.25 l 257
 646 770.25 l 257
311 518.25 m 257
 311 487.75 l 257
 657 487.75 l 257
 657 518.25 l 257
 311 518.25 l 257
295 518.25 m 257
 295 6.75 l 257
 325 6.75 l 257
 325 518.25 l 257
 295 518.25 l 257
319 37.25 m 257
 319 6.75 l 257
 652 6.75 l 257
 652 37.25 l 257
 319 37.25 l 257
575 636.75 m 257
 575 607.75 l 257
 729 607.75 l 257
 729 636.75 l 257
 575 636.75 l 257
EndSplineSet
EndChar

StartChar: Emacron
Encoding: 274 274 209
Width: 773
VWidth: 153
Flags: HW
LayerCount: 2
Fore
SplineSet
382 1016.5625 m 261
 382 990.5625 l 261
 662 990.5625 l 261
 662 1016.5625 l 261
 382 1016.5625 l 261
EndSplineSet
Refer: 38 69 N 1 0 0 1 0 0 2
EndChar

StartChar: emacron
Encoding: 275 275 210
Width: 781
VWidth: -12
Flags: HW
LayerCount: 2
Fore
SplineSet
398 588.1875 m 261
 398 562.1875 l 261
 678 562.1875 l 261
 678 588.1875 l 261
 398 588.1875 l 261
EndSplineSet
Refer: 70 101 N 1 0 0 1 0 0 2
EndChar

StartChar: Ebreve
Encoding: 276 276 211
Width: 773
VWidth: 182
Flags: HW
LayerCount: 2
Fore
SplineSet
604.5 1055.3125 m 261
 604.5 1020.3125 l 261
 687 1055.3125 l 261
 687 1102.8125 l 261
 604.5 1055.3125 l 261
442.5 1055.3125 m 261
 442.5 1020.3125 l 261
 604.5 1020.3125 l 261
 604.5 1055.3125 l 261
 442.5 1055.3125 l 261
357 1095.3125 m 261
 357 1055.3125 l 261
 442.5 1020.3125 l 261
 442.5 1055.3125 l 261
 357 1095.3125 l 261
EndSplineSet
Refer: 38 69 N 1 0 0 1 0 0 2
EndChar

StartChar: ebreve
Encoding: 277 277 212
Width: 781
VWidth: 17
Flags: HW
LayerCount: 2
Fore
SplineSet
620.5 626.9375 m 261
 620.5 591.9375 l 261
 703 626.9375 l 261
 703 674.4375 l 261
 620.5 626.9375 l 261
458.5 626.9375 m 261
 458.5 591.9375 l 261
 620.5 591.9375 l 261
 620.5 626.9375 l 261
 458.5 626.9375 l 261
373 666.9375 m 261
 373 626.9375 l 261
 458.5 591.9375 l 261
 458.5 626.9375 l 261
 373 666.9375 l 261
EndSplineSet
Refer: 70 101 N 1 0 0 1 0 0 2
EndChar

StartChar: Edotaccent
Encoding: 278 278 213
Width: 768
VWidth: 166
Flags: HW
LayerCount: 2
Fore
SplineSet
489 1054.8125 m 261
 489 1004.3125 l 261
 545 1004.3125 l 261
 545 1054.8125 l 261
 489 1054.8125 l 261
EndSplineSet
Refer: 38 69 N 1 0 0 1 0 0 2
EndChar

StartChar: edotaccent
Encoding: 279 279 214
Width: 768
VWidth: 1
Flags: HW
LayerCount: 2
Fore
SplineSet
497 626.4375 m 261
 497 575.9375 l 261
 553 575.9375 l 261
 553 626.4375 l 261
 497 626.4375 l 261
EndSplineSet
Refer: 70 101 N 1 0 0 1 0 0 2
EndChar

StartChar: Eogonek
Encoding: 280 280 215
Width: 858
VWidth: -184
Flags: HW
LayerCount: 2
Fore
SplineSet
612.5 -352.3125 m 261
 612.5 -382.3125 l 261
 883 -382.3125 l 261
 883 -352.3125 l 261
 612.5 -352.3125 l 261
612.5 -176.8125 m 261
 612.5 -382.3125 l 261
 642.5 -382.3125 l 261
 642.5 -176.8125 l 261
 612.5 -176.8125 l 261
612.5 -176.8125 m 261
 612.5 -206.3125 l 261
 883.5 -206.3125 l 261
 883.5 -176.8125 l 261
 612.5 -176.8125 l 261
EndSplineSet
Refer: 38 69 N 1 0 0 1 0 0 2
EndChar

StartChar: eogonek
Encoding: 281 281 216
Width: 767
VWidth: -283
Flags: HW
LayerCount: 2
Fore
SplineSet
374.5 -450.9375 m 261
 374.5 -480.9375 l 261
 645 -480.9375 l 261
 645 -450.9375 l 261
 374.5 -450.9375 l 261
374.5 -275.4375 m 261
 374.5 -480.9375 l 261
 404.5 -480.9375 l 261
 404.5 -275.4375 l 261
 374.5 -275.4375 l 261
374.5 -275.4375 m 261
 374.5 -304.9375 l 261
 645.5 -304.9375 l 261
 645.5 -275.4375 l 261
 374.5 -275.4375 l 261
EndSplineSet
Refer: 70 101 N 1 0 0 1 0 0 2
EndChar

StartChar: Ecaron
Encoding: 282 282 217
Width: 768
VWidth: 224
Flags: HW
LayerCount: 2
Fore
SplineSet
517 1062.8125 m 261
 446.5 1226.3125 l 261
 433 1217.8125 l 261
 499 1062.8125 l 261
 517 1062.8125 l 261
500.5 1062.3125 m 261
 519 1062.3125 l 261
 602 1219.8125 l 261
 581.5 1228.8125 l 261
 500.5 1062.3125 l 261
EndSplineSet
Refer: 38 69 N 1 0 0 1 0 0 2
EndChar

StartChar: ecaron
Encoding: 283 283 218
Width: 773
VWidth: 59
Flags: HW
LayerCount: 2
Fore
SplineSet
529.25 634.4375 m 261
 458.75 797.9375 l 261
 445.25 789.4375 l 261
 511.25 634.4375 l 261
 529.25 634.4375 l 261
512.75 633.9375 m 261
 531.25 633.9375 l 261
 614.25 791.4375 l 261
 593.75 800.4375 l 261
 512.75 633.9375 l 261
EndSplineSet
Refer: 70 101 N 1 0 0 1 0 0 2
EndChar

StartChar: Gcircumflex
Encoding: 284 284 219
Width: 768
VWidth: 223
Flags: HW
LayerCount: 2
Fore
SplineSet
502.5 1227.0625 m 261
 484.5 1227.0625 l 261
 418.5 1072.0625 l 261
 432 1063.5625 l 261
 502.5 1227.0625 l 261
486 1228.0625 m 261
 567 1061.0625 l 261
 587.5 1070.0625 l 261
 504.5 1228.0625 l 261
 486 1228.0625 l 261
EndSplineSet
Refer: 40 71 N 1 0 0 1 0 0 2
EndChar

StartChar: gcircumflex
Encoding: 285 285 220
Width: 751
VWidth: -18
Flags: HW
LayerCount: 2
Fore
SplineSet
474.625 722 m 261
 456.625 722 l 261
 390.625 567 l 261
 404.125 558.5 l 261
 474.625 722 l 261
458.125 723 m 261
 539.125 556 l 261
 559.625 565 l 261
 476.625 723 l 261
 458.125 723 l 261
EndSplineSet
Refer: 72 103 N 1 0 0 1 0 0 2
EndChar

StartChar: Gbreve
Encoding: 286 286 221
Width: 759
VWidth: 180
Flags: HW
LayerCount: 2
Fore
SplineSet
576.5 1053.8125 m 261
 576.5 1018.8125 l 261
 659 1053.8125 l 261
 659 1101.3125 l 261
 576.5 1053.8125 l 261
414.5 1053.8125 m 261
 414.5 1018.8125 l 261
 576.5 1018.8125 l 261
 576.5 1053.8125 l 261
 414.5 1053.8125 l 261
329 1093.8125 m 261
 329 1053.8125 l 261
 414.5 1018.8125 l 261
 414.5 1053.8125 l 261
 329 1093.8125 l 261
EndSplineSet
Refer: 40 71 N 1 0 0 1 0 0 2
EndChar

StartChar: gbreve
Encoding: 287 287 222
Width: 747
VWidth: -60
Flags: HW
LayerCount: 2
Fore
SplineSet
553.5 549.5 m 261
 553.5 514.5 l 261
 636 549.5 l 261
 636 597 l 261
 553.5 549.5 l 261
391.5 549.5 m 261
 391.5 514.5 l 261
 553.5 514.5 l 261
 553.5 549.5 l 261
 391.5 549.5 l 261
306 589.5 m 261
 306 549.5 l 261
 391.5 514.5 l 261
 391.5 549.5 l 261
 306 589.5 l 261
EndSplineSet
Refer: 72 103 N 1 0 0 1 0 0 2
EndChar

StartChar: Gdotaccent
Encoding: 288 288 223
Width: 768
VWidth: 164
Flags: HW
LayerCount: 2
Fore
SplineSet
475 1053.3125 m 261
 475 1002.8125 l 261
 531 1002.8125 l 261
 531 1053.3125 l 261
 475 1053.3125 l 261
EndSplineSet
Refer: 40 71 N 1 0 0 1 0 0 2
EndChar

StartChar: gdotaccent
Encoding: 289 289 224
Width: 768
VWidth: -76
Flags: HW
LayerCount: 2
Fore
SplineSet
463.5 549 m 261
 463.5 498.5 l 261
 519.5 498.5 l 261
 519.5 549 l 261
 463.5 549 l 261
EndSplineSet
Refer: 72 103 N 1 0 0 1 0 0 2
EndChar

StartChar: uni0122
Encoding: 290 290 225
Width: 768
VWidth: -188
Flags: HW
LayerCount: 2
Fore
SplineSet
461 -250.3125 m 261
 461 -316.3125 l 261
 517 -316.3125 l 261
 517 -250.3125 l 261
 461 -250.3125 l 261
461 -316.3125 m 261
 439 -373.3125 l 261
 471 -386.8125 l 261
 517 -316.3125 l 261
 461 -316.3125 l 261
EndSplineSet
Refer: 40 71 N 1 0 0 1 0 0 2
EndChar

StartChar: uni0123
Encoding: 291 291 226
Width: 768
VWidth: -129
Flags: HW
LayerCount: 2
Fore
SplineSet
369 383 m 257
 369 -128.5 l 257
 398.5 -128.5 l 257
 398.5 383 l 257
 369 383 l 257
389 383 m 257
 389 353.5 l 257
 647 353.5 l 257
 647 383 l 257
 389 383 l 257
627.5 383 m 257
 627.5 -334 l 257
 658 -334 l 257
 658 383 l 257
 627.5 383 l 257
400.5 -98 m 257
 400.5 -128.5 l 257
 629 -128.5 l 257
 629 -98 l 257
 400.5 -98 l 257
366 -305.5 m 257
 366 -335 l 257
 633.5 -335 l 257
 633.5 -305.5 l 257
 366 -305.5 l 257
478.5 571 m 257
 478.5 470.5 l 257
 509 470.5 l 257
 509 571 l 257
 478.5 571 l 257
EndSplineSet
EndChar

StartChar: Hcircumflex
Encoding: 292 292 227
Width: 767
VWidth: 224
Flags: HW
LayerCount: 2
Fore
SplineSet
495 1228.5625 m 261
 477 1228.5625 l 261
 411 1073.5625 l 261
 424.5 1065.0625 l 261
 495 1228.5625 l 261
478.5 1229.5625 m 261
 559.5 1062.5625 l 261
 580 1071.5625 l 261
 497 1229.5625 l 261
 478.5 1229.5625 l 261
EndSplineSet
Refer: 41 72 N 1 0 0 1 0 0 2
EndChar

StartChar: hcircumflex
Encoding: 293 293 228
Width: 697
VWidth: 217
Flags: HW
LayerCount: 2
Fore
SplineSet
298.5 1210.3125 m 261
 280.5 1210.3125 l 261
 214.5 1055.3125 l 261
 228 1046.8125 l 261
 298.5 1210.3125 l 261
282 1211.3125 m 261
 363 1044.3125 l 261
 383.5 1053.3125 l 261
 300.5 1211.3125 l 261
 282 1211.3125 l 261
EndSplineSet
Refer: 73 104 N 1 0 0 1 0 0 2
EndChar

StartChar: Hbar
Encoding: 294 294 229
Width: 768
VWidth: 10
Flags: HW
LayerCount: 2
Fore
SplineSet
311 780 m 257
 311 10 l 257
 341 10 l 257
 341 780 l 257
 311 780 l 257
679 780 m 257
 679 10 l 257
 709 10 l 257
 709 780 l 257
 679 780 l 257
331 521.5 m 257
 331 489.5 l 257
 687 489.5 l 257
 687 521.5 l 257
 331 521.5 l 257
281 727 m 257
 281 697 l 257
 743 697 l 257
 743 727 l 257
 281 727 l 257
EndSplineSet
EndChar

StartChar: hbar
Encoding: 295 295 230
Width: 768
VWidth: 10
Flags: HW
LayerCount: 2
Fore
SplineSet
377 780.75 m 257
 377 13.25 l 257
 407 13.25 l 257
 407 780.75 l 257
 377 780.75 l 257
394 521.75 m 257
 394 493.25 l 257
 711 493.25 l 257
 711 521.75 l 257
 394 521.75 l 257
685.5 521.75 m 257
 685.5 10.25 l 257
 715 10.25 l 257
 715 521.75 l 257
 685.5 521.75 l 257
309 724.75 m 257
 309 694.75 l 257
 537 694.75 l 257
 537 724.75 l 257
 309 724.75 l 257
EndSplineSet
EndChar

StartChar: Itilde
Encoding: 296 296 231
Width: 764
VWidth: 191
Flags: HW
LayerCount: 2
Fore
SplineSet
431 1090 m 261
 431 1065 l 261
 606 1029.5 l 261
 606 1054.5 l 261
 431 1090 l 261
311 1062 m 261
 318 1033 l 261
 431 1065 l 261
 431 1090 l 261
 311 1062 l 261
606 1054.5 m 261
 606 1029.5 l 261
 697 1105 l 261
 690 1128.5 l 261
 606 1054.5 l 261
EndSplineSet
Refer: 42 73 N 1 0 0 1 0 0 2
EndChar

StartChar: itilde
Encoding: 297 297 232
Width: 766
VWidth: -39
Flags: HW
LayerCount: 2
Fore
SplineSet
435 596.75 m 261
 435 571.75 l 261
 610 536.25 l 261
 610 561.25 l 261
 435 596.75 l 261
315 568.75 m 261
 322 539.75 l 261
 435 571.75 l 261
 435 596.75 l 261
 315 568.75 l 261
610 561.25 m 261
 610 536.25 l 261
 701 611.75 l 261
 694 635.25 l 261
 610 561.25 l 261
EndSplineSet
Refer: 240 305 N 1 0 0 1 0 0 2
EndChar

StartChar: Imacron
Encoding: 298 298 233
Width: 764
VWidth: 154
Flags: HW
LayerCount: 2
Fore
SplineSet
364 1017.5 m 261
 364 991.5 l 261
 644 991.5 l 261
 644 1017.5 l 261
 364 1017.5 l 261
EndSplineSet
Refer: 42 73 N 1 0 0 1 0 0 2
EndChar

StartChar: imacron
Encoding: 299 299 234
Width: 757
VWidth: -76
Flags: HW
LayerCount: 2
Fore
SplineSet
295.75 524.25 m 261
 295.75 498.25 l 261
 575.75 498.25 l 261
 575.75 524.25 l 261
 295.75 524.25 l 261
EndSplineSet
Refer: 240 305 N 1 0 0 1 0 0 2
EndChar

StartChar: Ibreve
Encoding: 300 300 235
Width: 764
VWidth: 183
Flags: HW
LayerCount: 2
Fore
SplineSet
586.5 1056.25 m 261
 586.5 1021.25 l 261
 669 1056.25 l 261
 669 1103.75 l 261
 586.5 1056.25 l 261
424.5 1056.25 m 261
 424.5 1021.25 l 261
 586.5 1021.25 l 261
 586.5 1056.25 l 261
 424.5 1056.25 l 261
339 1096.25 m 261
 339 1056.25 l 261
 424.5 1021.25 l 261
 424.5 1056.25 l 261
 339 1096.25 l 261
EndSplineSet
Refer: 42 73 N 1 0 0 1 0 0 2
EndChar

StartChar: ibreve
Encoding: 301 301 236
Width: 768
VWidth: -47
Flags: HW
LayerCount: 2
Fore
SplineSet
578.5 563 m 261
 578.5 528 l 261
 661 563 l 261
 661 610.5 l 261
 578.5 563 l 261
416.5 563 m 261
 416.5 528 l 261
 578.5 528 l 261
 578.5 563 l 261
 416.5 563 l 261
331 603 m 261
 331 563 l 261
 416.5 528 l 261
 416.5 563 l 261
 331 603 l 261
EndSplineSet
Refer: 240 305 N 1 0 0 1 0 0 2
EndChar

StartChar: Iogonek
Encoding: 302 302 237
Width: 768
VWidth: -182
Flags: HW
LayerCount: 2
Fore
SplineSet
376.5 -347.25 m 261
 376.5 -377.25 l 261
 647 -377.25 l 261
 647 -347.25 l 261
 376.5 -347.25 l 261
376.5 -171.75 m 261
 376.5 -377.25 l 261
 406.5 -377.25 l 261
 406.5 -171.75 l 261
 376.5 -171.75 l 261
376.5 -171.75 m 261
 376.5 -201.25 l 261
 647.5 -201.25 l 261
 647.5 -171.75 l 261
 376.5 -171.75 l 261
EndSplineSet
Refer: 42 73 N 1 0 0 1 0 0 2
EndChar

StartChar: iogonek
Encoding: 303 303 238
Width: 768
VWidth: -232
Flags: HW
LayerCount: 2
Fore
SplineSet
376.5 -399.75 m 261
 376.5 -429.75 l 261
 647 -429.75 l 261
 647 -399.75 l 261
 376.5 -399.75 l 261
376.5 -224.25 m 261
 376.5 -429.75 l 261
 406.5 -429.75 l 261
 406.5 -224.25 l 261
 376.5 -224.25 l 261
376.5 -224.25 m 261
 376.5 -253.75 l 261
 647.5 -253.75 l 261
 647.5 -224.25 l 261
 376.5 -224.25 l 261
EndSplineSet
Refer: 74 105 N 1 0 0 1 0 0 2
EndChar

StartChar: Idotaccent
Encoding: 304 304 239
Width: 768
VWidth: 167
Flags: HW
LayerCount: 2
Fore
SplineSet
480 1055.75 m 261
 480 1005.25 l 261
 536 1005.25 l 261
 536 1055.75 l 261
 480 1055.75 l 261
EndSplineSet
Refer: 42 73 N 1 0 0 1 0 0 2
EndChar

StartChar: dotlessi
Encoding: 305 305 240
Width: 768
VWidth: -120
Flags: HW
LayerCount: 2
Fore
SplineSet
511 392.25 m 257
 511 -93.25 l 257
 541 -93.25 l 257
 541 392.25 l 257
 511 392.25 l 257
326.5 -89.25 m 257
 326.5 -119.25 l 257
 697.5 -119.25 l 257
 697.5 -89.25 l 257
 326.5 -89.25 l 257
351.5 392.25 m 257
 351.5 361.75 l 257
 519.5 361.75 l 257
 519.5 392.25 l 257
 351.5 392.25 l 257
EndSplineSet
EndChar

StartChar: Jcircumflex
Encoding: 308 308 241
Width: 851
VWidth: 222
Flags: HW
LayerCount: 2
Fore
SplineSet
773.75 1226.9375 m 261
 755.75 1226.9375 l 261
 689.75 1071.9375 l 261
 703.25 1063.4375 l 261
 773.75 1226.9375 l 261
757.25 1227.9375 m 261
 838.25 1060.9375 l 261
 858.75 1069.9375 l 261
 775.75 1227.9375 l 261
 757.25 1227.9375 l 261
EndSplineSet
Refer: 43 74 N 1 0 0 1 0 0 2
EndChar

StartChar: jcircumflex
Encoding: 309 309 242
Width: 811
VWidth: -109
Flags: HW
LayerCount: 2
Fore
SplineSet
683.75 403.25 m 261
 683.75 -313.75 l 261
 712.75 -313.75 l 261
 712.75 403.25 l 261
 683.75 403.25 l 261
398.75 -282.25 m 261
 398.75 -311.25 l 261
 693.75 -311.25 l 261
 693.75 -282.25 l 261
 398.75 -282.25 l 261
398.75 -111.25 m 261
 398.75 -297.25 l 261
 428.75 -297.25 l 261
 428.75 -111.25 l 261
 398.75 -111.25 l 261
715.25 629.75 m 261
 697.25 629.75 l 261
 631.25 474.75 l 261
 644.75 466.25 l 261
 715.25 629.75 l 261
698.75 630.75 m 261
 779.75 463.75 l 261
 800.25 472.75 l 261
 717.25 630.75 l 261
 698.75 630.75 l 261
EndSplineSet
EndChar

StartChar: uni0136
Encoding: 310 310 243
Width: 768
VWidth: -181
Flags: HW
LayerCount: 2
Fore
SplineSet
510.5 -236.0625 m 261
 510.5 -302.0625 l 261
 566.5 -302.0625 l 261
 566.5 -236.0625 l 261
 510.5 -236.0625 l 261
510.5 -302.0625 m 261
 488.5 -359.0625 l 261
 520.5 -372.5625 l 261
 566.5 -302.0625 l 261
 510.5 -302.0625 l 261
EndSplineSet
Refer: 44 75 N 1 0 0 1 0 0 2
EndChar

StartChar: uni0137
Encoding: 311 311 244
Width: 768
VWidth: -183
Flags: HW
LayerCount: 2
Fore
SplineSet
506 -237.1875 m 261
 506 -303.1875 l 261
 562 -303.1875 l 261
 562 -237.1875 l 261
 506 -237.1875 l 261
506 -303.1875 m 261
 484 -360.1875 l 261
 516 -373.6875 l 261
 562 -303.1875 l 261
 506 -303.1875 l 261
EndSplineSet
Refer: 76 107 N 1 0 0 1 0 0 2
EndChar

StartChar: Lacute
Encoding: 313 313 245
Width: 768
VWidth: 195
Flags: HW
LayerCount: 2
Fore
SplineSet
525 1143.3125 m 261
 485.5 1050.8125 l 261
 512 1033.8125 l 261
 551.5 1126.3125 l 261
 525 1143.3125 l 261
EndSplineSet
Refer: 45 76 N 1 0 0 1 0 0 2
EndChar

StartChar: lacute
Encoding: 314 314 246
Width: 766
VWidth: 195
Flags: HW
LayerCount: 2
Fore
SplineSet
466.625 1142.5625 m 261
 427.125 1050.0625 l 261
 453.625 1033.0625 l 261
 493.125 1125.5625 l 261
 466.625 1142.5625 l 261
EndSplineSet
Refer: 77 108 N 1 0 0 1 0 0 2
EndChar

StartChar: uni013B
Encoding: 315 315 247
Width: 768
VWidth: -183
Flags: HW
LayerCount: 2
Fore
SplineSet
495 -242.8125 m 261
 495 -308.8125 l 261
 551 -308.8125 l 261
 551 -242.8125 l 261
 495 -242.8125 l 261
495 -308.8125 m 261
 473 -365.8125 l 261
 505 -379.3125 l 261
 551 -308.8125 l 261
 495 -308.8125 l 261
EndSplineSet
Refer: 45 76 N 1 0 0 1 0 0 2
EndChar

StartChar: uni013C
Encoding: 316 316 248
Width: 768
VWidth: -183
Flags: HW
LayerCount: 2
Fore
SplineSet
495 -242.0625 m 261
 495 -308.0625 l 261
 551 -308.0625 l 261
 551 -242.0625 l 261
 495 -242.0625 l 261
495 -308.0625 m 261
 473 -365.0625 l 261
 505 -378.5625 l 261
 551 -308.0625 l 261
 495 -308.0625 l 261
EndSplineSet
Refer: 77 108 N 1 0 0 1 0 0 2
EndChar

StartChar: Lcaron
Encoding: 317 317 249
Width: 768
VWidth: 10
Flags: HW
LayerCount: 2
Fore
SplineSet
303 781.5 m 257
 303 10.5 l 257
 334 10.5 l 257
 334 781.5 l 257
 303 781.5 l 257
317 41.5 m 257
 317 10.5 l 257
 721 10.5 l 257
 721 41.5 l 257
 317 41.5 l 257
500 758.5 m 257
 500 642.5 l 257
 520 642.5 l 257
 520 758.5 l 257
 500 758.5 l 257
EndSplineSet
EndChar

StartChar: lcaron
Encoding: 318 318 250
Width: 768
VWidth: 12
Flags: HW
LayerCount: 2
Fore
SplineSet
354 43.5 m 257
 354 12.5 l 257
 671 12.5 l 257
 671 43.5 l 257
 354 43.5 l 257
502 787.5 m 257
 502 35.5 l 257
 531 35.5 l 257
 531 787.5 l 257
 502 787.5 l 257
353 787.5 m 257
 353 757 l 257
 509 757 l 257
 509 787.5 l 257
 353 787.5 l 257
571 760.5 m 257
 571 644.5 l 257
 597 644.5 l 257
 597 760.5 l 257
 571 760.5 l 257
EndSplineSet
EndChar

StartChar: Lslash
Encoding: 321 321 253
Width: 767
VWidth: 10
Flags: HW
LayerCount: 2
Fore
SplineSet
341 781.5 m 257
 341 10.5 l 257
 371 10.5 l 257
 371 781.5 l 257
 341 781.5 l 257
353 42.5 m 257
 353 10.5 l 257
 758.5 10.5 l 257
 758.5 42.5 l 257
 353 42.5 l 257
263.5 461.5 m 257
 303.5 443.5 l 257
 520.5 544.5 l 257
 480.5 562.5 l 257
 263.5 461.5 l 257
EndSplineSet
EndChar

StartChar: lslash
Encoding: 322 322 254
Width: 790
VWidth: 13
Flags: HW
LayerCount: 2
Fore
SplineSet
375.5 43.25 m 257
 375.5 13.25 l 257
 692.5 13.25 l 257
 692.5 43.25 l 257
 375.5 43.25 l 257
554 789.75 m 257
 554 24.25 l 257
 584 24.25 l 257
 584 789.75 l 257
 554 789.75 l 257
406 789.75 m 257
 406 759.75 l 257
 567 759.75 l 257
 567 789.75 l 257
 406 789.75 l 257
685.5 532.75 m 257
 396 364.25 l 257
 447 364.25 l 257
 736.5 532.75 l 257
 685.5 532.75 l 257
EndSplineSet
EndChar

StartChar: Nacute
Encoding: 323 323 255
Width: 768
VWidth: 195
Flags: HW
LayerCount: 2
Fore
SplineSet
524.5 1143.3125 m 261
 485 1050.8125 l 261
 511.5 1033.8125 l 261
 551 1126.3125 l 261
 524.5 1143.3125 l 261
EndSplineSet
Refer: 47 78 N 1 0 0 1 0 0 2
EndChar

StartChar: nacute
Encoding: 324 324 256
Width: 768
VWidth: 30
Flags: HW
LayerCount: 2
Fore
SplineSet
525 714.9375 m 261
 485.5 622.4375 l 261
 512 605.4375 l 261
 551.5 697.9375 l 261
 525 714.9375 l 261
EndSplineSet
Refer: 79 110 N 1 0 0 1 0 0 2
EndChar

StartChar: uni0145
Encoding: 325 325 257
Width: 768
VWidth: -183
Flags: HW
LayerCount: 2
Fore
SplineSet
495 -242.8125 m 261
 495 -308.8125 l 261
 551 -308.8125 l 261
 551 -242.8125 l 261
 495 -242.8125 l 261
495 -308.8125 m 261
 473 -365.8125 l 261
 505 -379.3125 l 261
 551 -308.8125 l 261
 495 -308.8125 l 261
EndSplineSet
Refer: 47 78 N 1 0 0 1 0 0 2
EndChar

StartChar: uni0146
Encoding: 326 326 258
Width: 768
VWidth: -283
Flags: HW
LayerCount: 2
Fore
SplineSet
555.75 -343.6875 m 261
 555.75 -409.6875 l 261
 611.75 -409.6875 l 261
 611.75 -343.6875 l 261
 555.75 -343.6875 l 261
555.75 -409.6875 m 261
 533.75 -466.6875 l 261
 565.75 -480.1875 l 261
 611.75 -409.6875 l 261
 555.75 -409.6875 l 261
EndSplineSet
Refer: 79 110 N 1 0 0 1 0 0 2
EndChar

StartChar: Ncaron
Encoding: 327 327 259
Width: 768
VWidth: 224
Flags: HW
LayerCount: 2
Fore
SplineSet
511 1062.8125 m 261
 440.5 1226.3125 l 261
 427 1217.8125 l 261
 493 1062.8125 l 261
 511 1062.8125 l 261
494.5 1062.3125 m 261
 513 1062.3125 l 261
 596 1219.8125 l 261
 575.5 1228.8125 l 261
 494.5 1062.3125 l 261
EndSplineSet
Refer: 47 78 N 1 0 0 1 0 0 2
EndChar

StartChar: ncaron
Encoding: 328 328 260
Width: 768
VWidth: 59
Flags: HW
LayerCount: 2
Fore
SplineSet
511.5 634.4375 m 261
 441 797.9375 l 261
 427.5 789.4375 l 261
 493.5 634.4375 l 261
 511.5 634.4375 l 261
495 633.9375 m 261
 513.5 633.9375 l 261
 596.5 791.4375 l 261
 576 800.4375 l 261
 495 633.9375 l 261
EndSplineSet
Refer: 79 110 N 1 0 0 1 0 0 2
EndChar

StartChar: Omacron
Encoding: 332 332 261
Width: 768
VWidth: 153
Flags: HW
LayerCount: 2
Fore
SplineSet
372 1016.5625 m 261
 372 990.5625 l 261
 652 990.5625 l 261
 652 1016.5625 l 261
 372 1016.5625 l 261
EndSplineSet
Refer: 48 79 N 1 0 0 1 0 0 2
EndChar

StartChar: omacron
Encoding: 333 333 262
Width: 769
VWidth: -12
Flags: HW
LayerCount: 2
Fore
SplineSet
374 588.1875 m 261
 374 562.1875 l 261
 654 562.1875 l 261
 654 588.1875 l 261
 374 588.1875 l 261
EndSplineSet
Refer: 80 111 N 1 0 0 1 0 0 2
EndChar

StartChar: Obreve
Encoding: 334 334 263
Width: 768
VWidth: 182
Flags: HW
LayerCount: 2
Fore
SplineSet
594.5 1055.3125 m 261
 594.5 1020.3125 l 261
 677 1055.3125 l 261
 677 1102.8125 l 261
 594.5 1055.3125 l 261
432.5 1055.3125 m 261
 432.5 1020.3125 l 261
 594.5 1020.3125 l 261
 594.5 1055.3125 l 261
 432.5 1055.3125 l 261
347 1095.3125 m 261
 347 1055.3125 l 261
 432.5 1020.3125 l 261
 432.5 1055.3125 l 261
 347 1095.3125 l 261
EndSplineSet
Refer: 48 79 N 1 0 0 1 0 0 2
EndChar

StartChar: obreve
Encoding: 335 335 264
Width: 769
VWidth: 17
Flags: HW
LayerCount: 2
Fore
SplineSet
596.5 626.9375 m 261
 596.5 591.9375 l 261
 679 626.9375 l 261
 679 674.4375 l 261
 596.5 626.9375 l 261
434.5 626.9375 m 261
 434.5 591.9375 l 261
 596.5 591.9375 l 261
 596.5 626.9375 l 261
 434.5 626.9375 l 261
349 666.9375 m 261
 349 626.9375 l 261
 434.5 591.9375 l 261
 434.5 626.9375 l 261
 349 666.9375 l 261
EndSplineSet
Refer: 80 111 N 1 0 0 1 0 0 2
EndChar

StartChar: OE
Encoding: 338 338 267
Width: 768
VWidth: 13
Flags: HW
LayerCount: 2
Fore
SplineSet
317.5 789.75 m 257
 317.5 13.25 l 257
 347 13.25 l 257
 347 789.75 l 257
 317.5 789.75 l 257
549.5 789.75 m 257
 549.5 13.25 l 257
 579 13.25 l 257
 579 789.75 l 257
 549.5 789.75 l 257
336.5 789.75 m 257
 336.5 759.75 l 257
 702.5 759.75 l 257
 702.5 789.75 l 257
 336.5 789.75 l 257
337.5 43.75 m 257
 337.5 13.25 l 257
 706.5 13.25 l 257
 706.5 43.75 l 257
 337.5 43.75 l 257
565.5 442.75 m 257
 565.5 412.25 l 257
 677 412.25 l 257
 677 442.75 l 257
 565.5 442.75 l 257
EndSplineSet
EndChar

StartChar: oe
Encoding: 339 339 268
Width: 768
VWidth: -120
Flags: HW
LayerCount: 2
Fore
SplineSet
549.5 133.75 m 257
 549.5 103.75 l 257
 699.5 103.75 l 257
 699.5 133.75 l 257
 549.5 133.75 l 257
687 392.25 m 257
 687 103.25 l 257
 716.5 103.25 l 257
 716.5 392.25 l 257
 687 392.25 l 257
302.5 392.25 m 257
 302.5 -119.25 l 257
 332 -119.25 l 257
 332 392.25 l 257
 302.5 392.25 l 257
530 392.25 m 257
 530 -119.25 l 257
 560.5 -119.25 l 257
 560.5 392.25 l 257
 530 392.25 l 257
330 392.25 m 257
 330 362.75 l 257
 717 362.75 l 257
 717 392.25 l 257
 330 392.25 l 257
325.5 -88.25 m 257
 325.5 -119.25 l 257
 721.5 -119.25 l 257
 721.5 -88.25 l 257
 325.5 -88.25 l 257
EndSplineSet
EndChar

StartChar: Racute
Encoding: 340 340 269
Width: 768
VWidth: 195
Flags: HW
LayerCount: 2
Fore
SplineSet
530.5 1143.125 m 261
 491 1050.625 l 261
 517.5 1033.625 l 261
 557 1126.125 l 261
 530.5 1143.125 l 261
EndSplineSet
Refer: 51 82 N 1 0 0 1 0 0 2
EndChar

StartChar: racute
Encoding: 341 341 270
Width: 768
VWidth: 30
Flags: HW
LayerCount: 2
Fore
SplineSet
525 714.9375 m 261
 485.5 622.4375 l 261
 512 605.4375 l 261
 551.5 697.9375 l 261
 525 714.9375 l 261
EndSplineSet
Refer: 83 114 N 1 0 0 1 0 0 2
EndChar

StartChar: uni0156
Encoding: 342 342 271
Width: 768
VWidth: -184
Flags: HW
LayerCount: 2
Fore
SplineSet
465 -244.125 m 261
 465 -310.125 l 261
 521 -310.125 l 261
 521 -244.125 l 261
 465 -244.125 l 261
465 -310.125 m 261
 443 -367.125 l 261
 475 -380.625 l 261
 521 -310.125 l 261
 465 -310.125 l 261
EndSplineSet
Refer: 51 82 N 1 0 0 1 0 0 2
EndChar

StartChar: uni0157
Encoding: 343 343 272
Width: 763
VWidth: -283
Flags: HW
LayerCount: 2
Fore
SplineSet
429.75 -343.6875 m 261
 429.75 -409.6875 l 261
 485.75 -409.6875 l 261
 485.75 -343.6875 l 261
 429.75 -343.6875 l 261
429.75 -409.6875 m 261
 407.75 -466.6875 l 261
 439.75 -480.1875 l 261
 485.75 -409.6875 l 261
 429.75 -409.6875 l 261
EndSplineSet
Refer: 83 114 N 1 0 0 1 0 0 2
EndChar

StartChar: Rcaron
Encoding: 344 344 273
Width: 768
VWidth: 224
Flags: HW
LayerCount: 2
Fore
SplineSet
517 1062.625 m 261
 446.5 1226.125 l 261
 433 1217.625 l 261
 499 1062.625 l 261
 517 1062.625 l 261
500.5 1062.125 m 261
 519 1062.125 l 261
 602 1219.625 l 261
 581.5 1228.625 l 261
 500.5 1062.125 l 261
EndSplineSet
Refer: 51 82 N 1 0 0 1 0 0 2
EndChar

StartChar: rcaron
Encoding: 345 345 274
Width: 768
VWidth: 59
Flags: HW
LayerCount: 2
Fore
SplineSet
511.5 634.4375 m 261
 441 797.9375 l 261
 427.5 789.4375 l 261
 493.5 634.4375 l 261
 511.5 634.4375 l 261
495 633.9375 m 261
 513.5 633.9375 l 261
 596.5 791.4375 l 261
 576 800.4375 l 261
 495 633.9375 l 261
EndSplineSet
Refer: 83 114 N 1 0 0 1 0 0 2
EndChar

StartChar: Sacute
Encoding: 346 346 275
Width: 768
VWidth: 195
Flags: HW
LayerCount: 2
Fore
SplineSet
481.5 1143.3125 m 261
 442 1050.8125 l 261
 468.5 1033.8125 l 261
 508 1126.3125 l 261
 481.5 1143.3125 l 261
EndSplineSet
Refer: 52 83 N 1 0 0 1 0 0 2
EndChar

StartChar: sacute
Encoding: 347 347 276
Width: 768
VWidth: 30
Flags: HW
LayerCount: 2
Fore
SplineSet
525 714.9375 m 261
 485.5 622.4375 l 261
 512 605.4375 l 261
 551.5 697.9375 l 261
 525 714.9375 l 261
EndSplineSet
Refer: 84 115 N 1 0 0 1 0 0 2
EndChar

StartChar: Scircumflex
Encoding: 348 348 277
Width: 752
VWidth: 224
Flags: HW
LayerCount: 2
Fore
SplineSet
452.25 1228.5625 m 261
 434.25 1228.5625 l 261
 368.25 1073.5625 l 261
 381.75 1065.0625 l 261
 452.25 1228.5625 l 261
435.75 1229.5625 m 261
 516.75 1062.5625 l 261
 537.25 1071.5625 l 261
 454.25 1229.5625 l 261
 435.75 1229.5625 l 261
EndSplineSet
Refer: 52 83 N 1 0 0 1 0 0 2
EndChar

StartChar: scircumflex
Encoding: 349 349 278
Width: 768
VWidth: 59
Flags: HW
LayerCount: 2
Fore
SplineSet
511.5 799.4375 m 261
 493.5 799.4375 l 261
 427.5 644.4375 l 261
 441 635.9375 l 261
 511.5 799.4375 l 261
495 800.4375 m 261
 576 633.4375 l 261
 596.5 642.4375 l 261
 513.5 800.4375 l 261
 495 800.4375 l 261
EndSplineSet
Refer: 84 115 N 1 0 0 1 0 0 2
EndChar

StartChar: Scedilla
Encoding: 350 350 279
Width: 829
VWidth: -226
Flags: HW
LayerCount: 2
Fore
SplineSet
565.5 -215.3125 m 261
 565.5 -335.3125 l 261
 594.5 -335.3125 l 261
 594.5 -215.3125 l 261
 565.5 -215.3125 l 261
568.5 -478.8125 m 261
 568.5 -508.3125 l 261
 791.5 -508.3125 l 261
 791.5 -478.8125 l 261
 568.5 -478.8125 l 261
762 -305.3125 m 261
 762 -491.3125 l 261
 791.5 -491.3125 l 261
 791.5 -305.3125 l 261
 762 -305.3125 l 261
568.5 -305.3125 m 261
 568.5 -335.3125 l 261
 791.5 -335.3125 l 261
 791.5 -305.3125 l 261
 568.5 -305.3125 l 261
EndSplineSet
Refer: 52 83 N 1 0 0 1 0 0 2
EndChar

StartChar: scedilla
Encoding: 351 351 280
Width: 835
VWidth: -325
Flags: HW
LayerCount: 2
Fore
SplineSet
564.5 -314.6875 m 261
 564.5 -434.6875 l 261
 593.5 -434.6875 l 261
 593.5 -314.6875 l 261
 564.5 -314.6875 l 261
567.5 -578.1875 m 261
 567.5 -607.6875 l 261
 790.5 -607.6875 l 261
 790.5 -578.1875 l 261
 567.5 -578.1875 l 261
761 -404.6875 m 261
 761 -590.6875 l 261
 790.5 -590.6875 l 261
 790.5 -404.6875 l 261
 761 -404.6875 l 261
567.5 -404.6875 m 261
 567.5 -434.6875 l 261
 790.5 -434.6875 l 261
 790.5 -404.6875 l 261
 567.5 -404.6875 l 261
EndSplineSet
Refer: 84 115 N 1 0 0 1 0 0 2
EndChar

StartChar: Scaron
Encoding: 352 352 281
Width: 752
VWidth: 224
Flags: HW
LayerCount: 2
Fore
SplineSet
452.25 1062.8125 m 261
 381.75 1226.3125 l 261
 368.25 1217.8125 l 261
 434.25 1062.8125 l 261
 452.25 1062.8125 l 261
435.75 1062.3125 m 261
 454.25 1062.3125 l 261
 537.25 1219.8125 l 261
 516.75 1228.8125 l 261
 435.75 1062.3125 l 261
EndSplineSet
Refer: 52 83 N 1 0 0 1 0 0 2
EndChar

StartChar: scaron
Encoding: 353 353 282
Width: 768
VWidth: 59
Flags: HW
LayerCount: 2
Fore
SplineSet
511.5 634.4375 m 261
 441 797.9375 l 261
 427.5 789.4375 l 261
 493.5 634.4375 l 261
 511.5 634.4375 l 261
495 633.9375 m 261
 513.5 633.9375 l 261
 596.5 791.4375 l 261
 576 800.4375 l 261
 495 633.9375 l 261
EndSplineSet
Refer: 84 115 N 1 0 0 1 0 0 2
EndChar

StartChar: uni0162
Encoding: 354 354 283
Width: 825
VWidth: -222
Flags: HW
LayerCount: 2
Fore
SplineSet
555 -205.5625 m 261
 555 -325.5625 l 261
 584 -325.5625 l 261
 584 -205.5625 l 261
 555 -205.5625 l 261
558 -469.0625 m 261
 558 -498.5625 l 261
 781 -498.5625 l 261
 781 -469.0625 l 261
 558 -469.0625 l 261
751.5 -295.5625 m 261
 751.5 -481.5625 l 261
 781 -481.5625 l 261
 781 -295.5625 l 261
 751.5 -295.5625 l 261
558 -295.5625 m 261
 558 -325.5625 l 261
 781 -325.5625 l 261
 781 -295.5625 l 261
 558 -295.5625 l 261
EndSplineSet
Refer: 53 84 N 1 0 0 1 0 0 2
EndChar

StartChar: uni0163
Encoding: 355 355 284
Width: 867
VWidth: -230
Flags: HW
LayerCount: 2
Fore
SplineSet
673.5 -219.8125 m 261
 673.5 -339.8125 l 261
 702.5 -339.8125 l 261
 702.5 -219.8125 l 261
 673.5 -219.8125 l 261
676.5 -483.3125 m 261
 676.5 -512.8125 l 261
 899.5 -512.8125 l 261
 899.5 -483.3125 l 261
 676.5 -483.3125 l 261
870 -309.8125 m 261
 870 -495.8125 l 261
 899.5 -495.8125 l 261
 899.5 -309.8125 l 261
 870 -309.8125 l 261
676.5 -309.8125 m 261
 676.5 -339.8125 l 261
 899.5 -339.8125 l 261
 899.5 -309.8125 l 261
 676.5 -309.8125 l 261
EndSplineSet
Refer: 85 116 N 1 0 0 1 0 0 2
EndChar

StartChar: Tcaron
Encoding: 356 356 285
Width: 768
VWidth: 226
Flags: HW
LayerCount: 2
Fore
SplineSet
511.5 1065.0625 m 261
 441 1228.5625 l 261
 427.5 1220.0625 l 261
 493.5 1065.0625 l 261
 511.5 1065.0625 l 261
495 1064.5625 m 261
 513.5 1064.5625 l 261
 596.5 1222.0625 l 261
 576 1231.0625 l 261
 495 1064.5625 l 261
EndSplineSet
Refer: 53 84 N 1 0 0 1 0 0 2
EndChar

StartChar: tcaron
Encoding: 357 357 286
Width: 768
VWidth: 7
Flags: HW
LayerCount: 2
Fore
SplineSet
488 771.75 m 257
 488 7.25 l 257
 518 7.25 l 257
 518 771.75 l 257
 488 771.75 l 257
494 37.25 m 257
 494 7.25 l 257
 690 7.25 l 257
 690 37.25 l 257
 494 37.25 l 257
334 518.75 m 257
 334 489.75 l 257
 671 489.75 l 257
 671 518.75 l 257
 334 518.75 l 257
583 755.25 m 257
 583 665.75 l 257
 614 665.75 l 257
 614 755.25 l 257
 583 755.25 l 257
EndSplineSet
EndChar

StartChar: Utilde
Encoding: 360 360 287
Width: 753
VWidth: 190
Flags: HW
LayerCount: 2
Fore
SplineSet
409 1089.0625 m 261
 409 1064.0625 l 261
 584 1028.5625 l 261
 584 1053.5625 l 261
 409 1089.0625 l 261
289 1061.0625 m 261
 296 1032.0625 l 261
 409 1064.0625 l 261
 409 1089.0625 l 261
 289 1061.0625 l 261
584 1053.5625 m 261
 584 1028.5625 l 261
 675 1104.0625 l 261
 668 1127.5625 l 261
 584 1053.5625 l 261
EndSplineSet
Refer: 54 85 N 1 0 0 1 0 0 2
EndChar

StartChar: utilde
Encoding: 361 361 288
Width: 746
VWidth: 28
Flags: HW
LayerCount: 2
Fore
SplineSet
395 666.625 m 261
 395 641.625 l 261
 570 606.125 l 261
 570 631.125 l 261
 395 666.625 l 261
275 638.625 m 261
 282 609.625 l 261
 395 641.625 l 261
 395 666.625 l 261
 275 638.625 l 261
570 631.125 m 261
 570 606.125 l 261
 661 681.625 l 261
 654 705.125 l 261
 570 631.125 l 261
EndSplineSet
Refer: 86 117 N 1 0 0 1 0 0 2
EndChar

StartChar: Umacron
Encoding: 362 362 289
Width: 756
VWidth: 153
Flags: HW
LayerCount: 2
Fore
SplineSet
348 1016.5625 m 261
 348 990.5625 l 261
 628 990.5625 l 261
 628 1016.5625 l 261
 348 1016.5625 l 261
EndSplineSet
Refer: 54 85 N 1 0 0 1 0 0 2
EndChar

StartChar: umacron
Encoding: 363 363 290
Width: 746
VWidth: -9
Flags: HW
LayerCount: 2
Fore
SplineSet
328 594.125 m 261
 328 568.125 l 261
 608 568.125 l 261
 608 594.125 l 261
 328 594.125 l 261
EndSplineSet
Refer: 86 117 N 1 0 0 1 0 0 2
EndChar

StartChar: Ubreve
Encoding: 364 364 291
Width: 773
VWidth: 182
Flags: HW
LayerCount: 2
Fore
SplineSet
604.5 1055.3125 m 261
 604.5 1020.3125 l 261
 687 1055.3125 l 261
 687 1102.8125 l 261
 604.5 1055.3125 l 261
442.5 1055.3125 m 261
 442.5 1020.3125 l 261
 604.5 1020.3125 l 261
 604.5 1055.3125 l 261
 442.5 1055.3125 l 261
357 1095.3125 m 261
 357 1055.3125 l 261
 442.5 1020.3125 l 261
 442.5 1055.3125 l 261
 357 1095.3125 l 261
EndSplineSet
Refer: 54 85 N 1 0 0 1 0 0 2
EndChar

StartChar: ubreve
Encoding: 365 365 292
Width: 746
VWidth: 19
Flags: HW
LayerCount: 2
Fore
SplineSet
550.5 632.875 m 261
 550.5 597.875 l 261
 633 632.875 l 261
 633 680.375 l 261
 550.5 632.875 l 261
388.5 632.875 m 261
 388.5 597.875 l 261
 550.5 597.875 l 261
 550.5 632.875 l 261
 388.5 632.875 l 261
303 672.875 m 261
 303 632.875 l 261
 388.5 597.875 l 261
 388.5 632.875 l 261
 303 672.875 l 261
EndSplineSet
Refer: 86 117 N 1 0 0 1 0 0 2
EndChar

StartChar: Uring
Encoding: 366 366 293
Width: 761
VWidth: 218
Flags: HW
LayerCount: 2
Fore
SplineSet
420.375 1196.3125 m 261
 565.375 1196.3125 l 261
 565.375 1069.8125 l 261
 420.375 1069.8125 l 261
 420.375 1196.3125 l 261
403.375 1210.8125 m 261
 403.375 1056.3125 l 261
 583.375 1056.3125 l 261
 583.375 1210.8125 l 261
 403.375 1210.8125 l 261
EndSplineSet
Refer: 54 85 N 1 0 0 1 0 0 2
EndChar

StartChar: uring
Encoding: 367 367 294
Width: 758
VWidth: 55
Flags: HW
LayerCount: 2
Fore
SplineSet
407.75 773.875 m 261
 552.75 773.875 l 261
 552.75 647.375 l 261
 407.75 647.375 l 261
 407.75 773.875 l 261
390.75 788.375 m 261
 390.75 633.875 l 261
 570.75 633.875 l 261
 570.75 788.375 l 261
 390.75 788.375 l 261
EndSplineSet
Refer: 86 117 N 1 0 0 1 0 0 2
EndChar

StartChar: Uogonek
Encoding: 370 370 297
Width: 768
VWidth: -184
Flags: HW
LayerCount: 2
Fore
SplineSet
376.5 -351.5625 m 261
 376.5 -381.5625 l 261
 647 -381.5625 l 261
 647 -351.5625 l 261
 376.5 -351.5625 l 261
376.5 -176.0625 m 261
 376.5 -381.5625 l 261
 406.5 -381.5625 l 261
 406.5 -176.0625 l 261
 376.5 -176.0625 l 261
376.5 -176.0625 m 261
 376.5 -205.5625 l 261
 647.5 -205.5625 l 261
 647.5 -176.0625 l 261
 376.5 -176.0625 l 261
EndSplineSet
Refer: 54 85 N 1 0 0 1 0 0 2
EndChar

StartChar: uogonek
Encoding: 371 371 298
Width: 856
VWidth: -281
Flags: HW
LayerCount: 2
Fore
SplineSet
600.75 -448.875 m 261
 600.75 -478.875 l 261
 871.25 -478.875 l 261
 871.25 -448.875 l 261
 600.75 -448.875 l 261
600.75 -273.375 m 261
 600.75 -478.875 l 261
 630.75 -478.875 l 261
 630.75 -273.375 l 261
 600.75 -273.375 l 261
600.75 -273.375 m 261
 600.75 -302.875 l 261
 871.75 -302.875 l 261
 871.75 -273.375 l 261
 600.75 -273.375 l 261
EndSplineSet
Refer: 86 117 N 1 0 0 1 0 0 2
EndChar

StartChar: Wcircumflex
Encoding: 372 372 299
Width: 768
VWidth: 224
Flags: HW
LayerCount: 2
Fore
SplineSet
514 1228.375 m 261
 496 1228.375 l 261
 430 1073.375 l 261
 443.5 1064.875 l 261
 514 1228.375 l 261
497.5 1229.375 m 261
 578.5 1062.375 l 261
 599 1071.375 l 261
 516 1229.375 l 261
 497.5 1229.375 l 261
EndSplineSet
Refer: 56 87 N 1 0 0 1 0 0 2
EndChar

StartChar: wcircumflex
Encoding: 373 373 300
Width: 779
VWidth: 60
Flags: HW
LayerCount: 2
Fore
SplineSet
562.5 801.25 m 261
 544.5 801.25 l 261
 478.5 646.25 l 261
 492 637.75 l 261
 562.5 801.25 l 261
546 802.25 m 261
 627 635.25 l 261
 647.5 644.25 l 261
 564.5 802.25 l 261
 546 802.25 l 261
EndSplineSet
Refer: 88 119 N 1 0 0 1 0 0 2
EndChar

StartChar: Ycircumflex
Encoding: 374 374 301
Width: 765
VWidth: 224
Flags: HW
LayerCount: 2
Fore
SplineSet
504.375 1228.375 m 261
 486.375 1228.375 l 261
 420.375 1073.375 l 261
 433.875 1064.875 l 261
 504.375 1228.375 l 261
487.875 1229.375 m 261
 568.875 1062.375 l 261
 589.375 1071.375 l 261
 506.375 1229.375 l 261
 487.875 1229.375 l 261
EndSplineSet
Refer: 58 89 N 1 0 0 1 0 0 2
EndChar

StartChar: ycircumflex
Encoding: 375 375 302
Width: 768
VWidth: -17
Flags: HW
LayerCount: 2
Fore
SplineSet
511.5 723.3125 m 261
 493.5 723.3125 l 261
 427.5 568.3125 l 261
 441 559.8125 l 261
 511.5 723.3125 l 261
495 724.3125 m 261
 576 557.3125 l 261
 596.5 566.3125 l 261
 513.5 724.3125 l 261
 495 724.3125 l 261
EndSplineSet
Refer: 90 121 N 1 0 0 1 0 0 2
EndChar

StartChar: Ydieresis
Encoding: 376 376 303
Width: 763
VWidth: 166
Flags: HW
LayerCount: 2
Fore
SplineSet
414.375 1054.625 m 261
 414.375 1004.125 l 261
 470.375 1004.125 l 261
 470.375 1054.625 l 261
 414.375 1054.625 l 261
535.375 1054.625 m 261
 535.375 1004.125 l 261
 591.375 1004.125 l 261
 591.375 1054.625 l 261
 535.375 1054.625 l 261
EndSplineSet
Refer: 58 89 N 1 0 0 1 0 0 2
EndChar

StartChar: Zacute
Encoding: 377 377 304
Width: 768
VWidth: 195
Flags: HW
LayerCount: 2
Fore
SplineSet
525 1143.125 m 261
 485.5 1050.625 l 261
 512 1033.625 l 261
 551.5 1126.125 l 261
 525 1143.125 l 261
EndSplineSet
Refer: 59 90 N 1 0 0 1 0 0 2
EndChar

StartChar: zacute
Encoding: 378 378 305
Width: 768
VWidth: 30
Flags: HW
LayerCount: 2
Fore
SplineSet
525 714.9375 m 261
 485.5 622.4375 l 261
 512 605.4375 l 261
 551.5 697.9375 l 261
 525 714.9375 l 261
EndSplineSet
Refer: 91 122 N 1 0 0 1 0 0 2
EndChar

StartChar: Zdotaccent
Encoding: 379 379 306
Width: 768
VWidth: 141
Flags: HW
LayerCount: 2
Fore
SplineSet
484 1029.625 m 261
 484 979.125 l 261
 540 979.125 l 261
 540 1029.625 l 261
 484 1029.625 l 261
EndSplineSet
Refer: 59 90 N 1 0 0 1 0 0 2
EndChar

StartChar: zdotaccent
Encoding: 380 380 307
Width: 768
VWidth: -24
Flags: HW
LayerCount: 2
Fore
SplineSet
484 601.4375 m 261
 484 550.9375 l 261
 540 550.9375 l 261
 540 601.4375 l 261
 484 601.4375 l 261
EndSplineSet
Refer: 91 122 N 1 0 0 1 0 0 2
EndChar

StartChar: Zcaron
Encoding: 381 381 308
Width: 768
VWidth: 224
Flags: HW
LayerCount: 2
Fore
SplineSet
511.5 1062.625 m 261
 441 1226.125 l 261
 427.5 1217.625 l 261
 493.5 1062.625 l 261
 511.5 1062.625 l 261
495 1062.125 m 261
 513.5 1062.125 l 261
 596.5 1219.625 l 261
 576 1228.625 l 261
 495 1062.125 l 261
EndSplineSet
Refer: 59 90 N 1 0 0 1 0 0 2
EndChar

StartChar: zcaron
Encoding: 382 382 309
Width: 768
VWidth: 59
Flags: HW
LayerCount: 2
Fore
SplineSet
511.5 634.4375 m 261
 441 797.9375 l 261
 427.5 789.4375 l 261
 493.5 634.4375 l 261
 511.5 634.4375 l 261
495 633.9375 m 261
 513.5 633.9375 l 261
 596.5 791.4375 l 261
 576 800.4375 l 261
 495 633.9375 l 261
EndSplineSet
Refer: 91 122 N 1 0 0 1 0 0 2
EndChar
